<svg class="main-svg" xmlns="http://www.w3.org/2000/svg" xmlns:xlink="http://www.w3.org/1999/xlink" width="700" height="500" style="" viewBox="0 0 700 500"><rect x="0" y="0" width="700" height="500" style="fill: rgb(255, 255, 255); fill-opacity: 1;"/><defs id="defs-de5897"><g class="clips"><clipPath id="clipde5897xyplot" class="plotclip"><rect width="637" height="433"/></clipPath><clipPath class="axesclip" id="clipde5897x"><rect x="48" y="0" width="637" height="500"/></clipPath><clipPath class="axesclip" id="clipde5897y"><rect x="0" y="5" width="700" height="433"/></clipPath><clipPath class="axesclip" id="clipde5897xy"><rect x="48" y="5" width="637" height="433"/></clipPath></g><g class="gradients"/><g class="patterns"/></defs><g class="bglayer"><rect class="bg" x="48" y="5" width="637" height="433" style="fill: rgb(245, 245, 245); fill-opacity: 1; stroke-width: 0;"/></g><g class="layer-below"><g class="imagelayer"/><g class="shapelayer"/></g><g class="cartesianlayer"><g class="subplot xy"><g class="layer-subplot"><g class="shapelayer"/><g class="imagelayer"/></g><g class="minor-gridlayer"><g class="x"/><g class="y"/></g><g class="gridlayer"><g class="x"><path class="xgrid crisp" transform="translate(193.38,0)" d="M0,5v433" style="stroke: rgb(255, 255, 255); stroke-opacity: 1; stroke-width: 1px;"/><path class="xgrid crisp" transform="translate(292.19,0)" d="M0,5v433" style="stroke: rgb(255, 255, 255); stroke-opacity: 1; stroke-width: 1px;"/><path class="xgrid crisp" transform="translate(391,0)" d="M0,5v433" style="stroke: rgb(255, 255, 255); stroke-opacity: 1; stroke-width: 1px;"/><path class="xgrid crisp" transform="translate(489.82,0)" d="M0,5v433" style="stroke: rgb(255, 255, 255); stroke-opacity: 1; stroke-width: 1px;"/><path class="xgrid crisp" transform="translate(588.63,0)" d="M0,5v433" style="stroke: rgb(255, 255, 255); stroke-opacity: 1; stroke-width: 1px;"/></g><g class="y"><path class="ygrid crisp" transform="translate(0,338.23)" d="M48,0h637" style="stroke: rgb(255, 255, 255); stroke-opacity: 1; stroke-width: 1px;"/><path class="ygrid crisp" transform="translate(0,260.12)" d="M48,0h637" style="stroke: rgb(255, 255, 255); stroke-opacity: 1; stroke-width: 1px;"/><path class="ygrid crisp" transform="translate(0,182)" d="M48,0h637" style="stroke: rgb(255, 255, 255); stroke-opacity: 1; stroke-width: 1px;"/><path class="ygrid crisp" transform="translate(0,103.89)" d="M48,0h637" style="stroke: rgb(255, 255, 255); stroke-opacity: 1; stroke-width: 1px;"/><path class="ygrid crisp" transform="translate(0,25.77)" d="M48,0h637" style="stroke: rgb(255, 255, 255); stroke-opacity: 1; stroke-width: 1px;"/></g></g><g class="zerolinelayer"><path class="xzl zl crisp" transform="translate(94.57,0)" d="M0,5v433" style="stroke: rgb(255, 255, 255); stroke-opacity: 1; stroke-width: 2px;"/><path class="yzl zl crisp" transform="translate(0,416.35)" d="M48,0h637" style="stroke: rgb(255, 255, 255); stroke-opacity: 1; stroke-width: 2px;"/></g><path class="xlines-below"/><path class="ylines-below"/><g class="overlines-below"/><g class="xaxislayer-below"/><g class="yaxislayer-below"/><g class="overaxes-below"/><g class="plot" transform="translate(48,5)" clip-path="url(#clipde5897xyplot)"><g class="scatterlayer mlayer"><g class="trace scatter trace157190" style="stroke-miterlimit: 2; opacity: 1;"><g class="fills"/><g class="errorbars"/><g class="lines"><path class="js-line" d="M0,35.97L0.68,394.79L0.86,388.35L1.05,390.42L1.25,390.52L1.45,389.04L1.73,402.06L2.1,388.7L2.33,389.29L3.4,411.35L3.4,406.72L3.61,388.54L4.47,386.55L4.78,386.51L5.1,385.91L5.43,386.18L5.77,386.28L8.48,386.92L8.92,383.86L9.84,386.28L10.32,386.54L19.82,377.18L20.63,376.56L25.1,372.12L26.08,371.64L30.35,368.12L31.51,367.48L35.21,364.59L36.52,364.02L40.73,359.52L42.23,360.3L43.77,357.3L45.37,365.26L46.57,383.62L47.02,377.16L48.72,356.16L50.48,355.34L52.29,353.75L54.17,353.42L64.5,348.84L66.78,348.06L87.87,340.22L90.91,339.32L111.36,334.6L115.17,330.8L119.11,333.08L123.17,332.9L131.7,330.74L136.18,330.58L160.85,330.31L166.29,330.25L189.85,331.4L196.23,331.88L239.15,336.53L247.15,337.56L331.98,349.71L343.02,351.49L445.37,367.99L460.12,370.18L524.12,378.79L541.45,380.51L596.92,387.06L616.64,388.94L637,390.75" style="vector-effect: non-scaling-stroke; fill: none; stroke: rgb(31, 119, 180); stroke-opacity: 1; stroke-width: 2px; opacity: 1;"/></g><g class="points"/><g class="text"/></g><g class="trace scatter trace8fdd30" style="stroke-miterlimit: 2; opacity: 1;"><g class="fills"/><g class="errorbars"/><g class="lines"><path class="js-line" d="M0,411.35L3.4,411.35L3.4,411.35L3.4,21.65L4.17,377.12L4.47,374.82L5.43,378.44L5.77,376.66L8.48,377.03L8.92,377.38L11.34,380.2L11.87,376.19L12.99,380.35L13.58,380.45L14.82,379.02L15.46,378.93L16.82,376.61L17.53,377.24L19.03,375.22L19.82,375.09L22.33,372.65L23.22,371.9L24.14,370.19L25.1,370.19L28.15,367.23L29.23,366.8L33.93,363.06L35.21,362.24L37.88,360.4L39.28,359.27L40.73,357.12L42.23,357.78L43.77,354.79L45.37,363.03L46.57,381.74L47.02,376.47L48.72,353.74L50.48,352.98L52.29,351.38L54.17,351.05L69.13,345.01L71.55,344.24L76.64,341.86L79.32,341.05L97.29,335.91L100.64,335.08L111.36,332.94L115.17,329.17L119.11,331.31L123.17,331.36L131.7,329.27L136.18,329.16L166.29,329.15L171.89,329.39L196.23,331.14L202.82,331.81L239.15,336.21L247.15,337.31L343.02,351.83L354.42,353.78L445.37,368.63L460.12,370.83L507.34,377.36L524.12,379.27L616.64,389.59L637,391.38" style="vector-effect: non-scaling-stroke; fill: none; stroke: rgb(255, 127, 14); stroke-opacity: 1; stroke-width: 2px; opacity: 1;"/></g><g class="points"/><g class="text"/></g></g></g><g class="overplot"/><path class="xlines-above crisp" d="M0,0" style="fill: none;"/><path class="ylines-above crisp" d="M0,0" style="fill: none;"/><g class="overlines-above"/><g class="xaxislayer-above"><g class="xtick"><text text-anchor="middle" x="0" y="459" transform="translate(94.57,0)" style="font-family: 'Times New Roman'; font-size: 20px; fill: rgb(0, 0, 0); fill-opacity: 1; white-space: pre; opacity: 1;">0</text></g><g class="xtick"><text text-anchor="middle" x="0" y="459" style="font-family: 'Times New Roman'; font-size: 20px; fill: rgb(0, 0, 0); fill-opacity: 1; white-space: pre; opacity: 1;" transform="translate(193.38,0)">5</text></g><g class="xtick"><text text-anchor="middle" x="0" y="459" style="font-family: 'Times New Roman'; font-size: 20px; fill: rgb(0, 0, 0); fill-opacity: 1; white-space: pre; opacity: 1;" transform="translate(292.19,0)">10</text></g><g class="xtick"><text text-anchor="middle" x="0" y="459" style="font-family: 'Times New Roman'; font-size: 20px; fill: rgb(0, 0, 0); fill-opacity: 1; white-space: pre; opacity: 1;" transform="translate(391,0)">15</text></g><g class="xtick"><text text-anchor="middle" x="0" y="459" style="font-family: 'Times New Roman'; font-size: 20px; fill: rgb(0, 0, 0); fill-opacity: 1; white-space: pre; opacity: 1;" transform="translate(489.82,0)">20</text></g><g class="xtick"><text text-anchor="middle" x="0" y="459" style="font-family: 'Times New Roman'; font-size: 20px; fill: rgb(0, 0, 0); fill-opacity: 1; white-space: pre; opacity: 1;" transform="translate(588.63,0)">25</text></g></g><g class="yaxislayer-above"><g class="ytick"><text text-anchor="end" x="47" y="7" transform="translate(0,416.35)" style="font-family: 'Times New Roman'; font-size: 20px; fill: rgb(0, 0, 0); fill-opacity: 1; white-space: pre; opacity: 1;">0</text></g><g class="ytick"><text text-anchor="end" x="47" y="7" style="font-family: 'Times New Roman'; font-size: 20px; fill: rgb(0, 0, 0); fill-opacity: 1; white-space: pre; opacity: 1;" transform="translate(0,338.23)">1</text></g><g class="ytick"><text text-anchor="end" x="47" y="7" style="font-family: 'Times New Roman'; font-size: 20px; fill: rgb(0, 0, 0); fill-opacity: 1; white-space: pre; opacity: 1;" transform="translate(0,260.12)">2</text></g><g class="ytick"><text text-anchor="end" x="47" y="7" style="font-family: 'Times New Roman'; font-size: 20px; fill: rgb(0, 0, 0); fill-opacity: 1; white-space: pre; opacity: 1;" transform="translate(0,182)">3</text></g><g class="ytick"><text text-anchor="end" x="47" y="7" style="font-family: 'Times New Roman'; font-size: 20px; fill: rgb(0, 0, 0); fill-opacity: 1; white-space: pre; opacity: 1;" transform="translate(0,103.89)">4</text></g><g class="ytick"><text text-anchor="end" x="47" y="7" style="font-family: 'Times New Roman'; font-size: 20px; fill: rgb(0, 0, 0); fill-opacity: 1; white-space: pre; opacity: 1;" transform="translate(0,25.77)">5</text></g></g><g class="overaxes-above"/></g></g><g class="polarlayer"/><g class="smithlayer"/><g class="ternarylayer"/><g class="geolayer"/><g class="funnelarealayer"/><g class="pielayer"/><g class="iciclelayer"/><g class="treemaplayer"/><g class="sunburstlayer"/><g class="glimages"/><defs id="topdefs-de5897"><g class="clips"/><clipPath id="legendde5897"><rect width="146" height="89" x="0" y="0"/></clipPath></defs><g class="layer-above"><g class="imagelayer"/><g class="shapelayer"/></g><g class="infolayer"><g class="legend" pointer-events="all" transform="translate(526.26,13.660000000000007)"><rect class="bg" shape-rendering="crispEdges" width="146" height="89" x="0" y="0" style="stroke: rgb(68, 68, 68); stroke-opacity: 1; fill: rgb(255, 255, 255); fill-opacity: 1; stroke-width: 0px;"/><g class="scrollbox" transform="" clip-path="url(#legendde5897)"><g class="groups" transform=""><g class="traces" transform="translate(0,24.7)" style="opacity: 1;"><text class="legendtext" text-anchor="start" x="40" y="10.92" style="font-family: 'Times New Roman'; font-size: 28px; fill: rgb(0, 0, 0); fill-opacity: 1; white-space: pre;">Initial</text><g class="layers" style="opacity: 1;"><g class="legendfill"/><g class="legendlines"><path class="js-line" d="M5,0h30" style="fill: none; stroke: rgb(31, 119, 180); stroke-opacity: 1; stroke-width: 2px;"/></g><g class="legendsymbols"><g class="legendpoints"/></g></g><rect class="legendtoggle" x="0" y="-19.7" width="140.671875" height="39.4" style="fill: rgb(0, 0, 0); fill-opacity: 0;"/></g></g><g class="groups" transform=""><g class="traces" transform="translate(0,64.1)" style="opacity: 1;"><text class="legendtext" text-anchor="start" x="40" y="10.92" style="font-family: 'Times New Roman'; font-size: 28px; fill: rgb(0, 0, 0); fill-opacity: 1; white-space: pre;">Terminal</text><g class="layers" style="opacity: 1;"><g class="legendfill"/><g class="legendlines"><path class="js-line" d="M5,0h30" style="fill: none; stroke: rgb(255, 127, 14); stroke-opacity: 1; stroke-width: 2px;"/></g><g class="legendsymbols"><g class="legendpoints"/></g></g><rect class="legendtoggle" x="0" y="-19.7" width="140.671875" height="39.4" style="fill: rgb(0, 0, 0); fill-opacity: 0;"/></g></g></g><rect class="scrollbar" rx="20" ry="3" width="0" height="0" x="0" y="0" style="fill: rgb(128, 139, 164); fill-opacity: 1;"/></g><g class="g-gtitle"/><g class="g-xtitle" transform="translate(0,-0.48750000000001137)"><text class="xtitle" x="366.5" y="495.3" text-anchor="middle" style="font-family: 'Times New Roman'; font-size: 24px; fill: rgb(0, 0, 0); opacity: 1; font-weight: normal; white-space: pre;">Bond/IOU Holdings</text></g><g class="g-ytitle" transform="translate(16.2998046875,0)"><text class="ytitle" transform="rotate(-90,5.200000000000003,221.5)" x="5.200000000000003" y="221.5" text-anchor="middle" style="font-family: 'Times New Roman'; font-size: 24px; fill: rgb(0, 0, 0); opacity: 1; font-weight: normal; white-space: pre;">Percent</text></g></g></svg>