<svg class="main-svg" xmlns="http://www.w3.org/2000/svg" xmlns:xlink="http://www.w3.org/1999/xlink" width="700" height="500" style="" viewBox="0 0 700 500"><rect x="0" y="0" width="700" height="500" style="fill: rgb(255, 255, 255); fill-opacity: 1;"/><defs id="defs-25e4b6"><g class="clips"><clipPath id="clip25e4b6xyplot" class="plotclip"><rect width="611" height="433"/></clipPath><clipPath class="axesclip" id="clip25e4b6x"><rect x="74" y="0" width="611" height="500"/></clipPath><clipPath class="axesclip" id="clip25e4b6y"><rect x="0" y="5" width="700" height="433"/></clipPath><clipPath class="axesclip" id="clip25e4b6xy"><rect x="74" y="5" width="611" height="433"/></clipPath></g><g class="gradients"/><g class="patterns"/></defs><g class="bglayer"><rect class="bg" x="74" y="5" width="611" height="433" style="fill: rgb(245, 245, 245); fill-opacity: 1; stroke-width: 0;"/></g><g class="layer-below"><g class="imagelayer"/><g class="shapelayer"/></g><g class="cartesianlayer"><g class="subplot xy"><g class="layer-subplot"><g class="shapelayer"/><g class="imagelayer"/></g><g class="minor-gridlayer"><g class="x"/><g class="y"/></g><g class="gridlayer"><g class="x"><path class="xgrid crisp" transform="translate(189.22,0)" d="M0,5v433" style="stroke: rgb(255, 255, 255); stroke-opacity: 1; stroke-width: 1px;"/><path class="xgrid crisp" transform="translate(354.53,0)" d="M0,5v433" style="stroke: rgb(255, 255, 255); stroke-opacity: 1; stroke-width: 1px;"/><path class="xgrid crisp" transform="translate(519.85,0)" d="M0,5v433" style="stroke: rgb(255, 255, 255); stroke-opacity: 1; stroke-width: 1px;"/></g><g class="y"><path class="ygrid crisp" transform="translate(0,396.47)" d="M74,0h611" style="stroke: rgb(255, 255, 255); stroke-opacity: 1; stroke-width: 1px;"/><path class="ygrid crisp" transform="translate(0,306.57)" d="M74,0h611" style="stroke: rgb(255, 255, 255); stroke-opacity: 1; stroke-width: 1px;"/><path class="ygrid crisp" transform="translate(0,126.78)" d="M74,0h611" style="stroke: rgb(255, 255, 255); stroke-opacity: 1; stroke-width: 1px;"/><path class="ygrid crisp" transform="translate(0,36.879999999999995)" d="M74,0h611" style="stroke: rgb(255, 255, 255); stroke-opacity: 1; stroke-width: 1px;"/></g></g><g class="zerolinelayer"><path class="yzl zl crisp" transform="translate(0,216.68)" d="M74,0h611" style="stroke: rgb(255, 255, 255); stroke-opacity: 1; stroke-width: 2px;"/></g><path class="xlines-below"/><path class="ylines-below"/><g class="overlines-below"/><g class="xaxislayer-below"/><g class="yaxislayer-below"/><g class="overaxes-below"/><g class="plot" transform="translate(74,5)" clip-path="url(#clip25e4b6xyplot)"><g class="scatterlayer mlayer"><g class="trace scatter trace1e468b" style="stroke-miterlimit: 2; opacity: 1;"><g class="fills"/><g class="errorbars"/><g class="lines"><path class="js-line" d="M56.54,411.35L65,291.16L69.83,288.55L74.83,268.41L79.99,260.48L85.31,252.36L90.82,246.43L96.5,237.23L102.37,232.3L114.69,223.76L121.15,221.06L127.83,218.23L134.72,213.79L149.2,208.26L156.79,206.28L164.63,204.29L172.73,200.17L189.74,196.85L198.66,193.35L217.4,188.05L227.22,187.59L247.86,181.26L258.68,179.44L269.87,177.22L281.41,172.82L305.65,168.55L318.37,164.19L331.51,162.05L345.08,158.63L388.5,147.31L403.94,141.85L453.34,126.08L470.9,119.16L507.75,103.08L527.09,92.37L547.07,81.51L567.7,63.02L589,47.04L611,21.65" style="vector-effect: non-scaling-stroke; fill: none; stroke: rgb(31, 119, 180); stroke-opacity: 1; stroke-width: 4px; opacity: 1;"/></g><g class="points"/><g class="text"/></g></g></g><g class="overplot"/><path class="xlines-above crisp" d="M0,0" style="fill: none;"/><path class="ylines-above crisp" d="M0,0" style="fill: none;"/><g class="overlines-above"/><g class="xaxislayer-above"><g class="xtick"><text text-anchor="middle" x="0" y="459" transform="translate(189.22,0)" style="font-family: 'Times New Roman'; font-size: 20px; fill: rgb(0, 0, 0); fill-opacity: 1; white-space: pre; opacity: 1;">−2</text></g><g class="xtick"><text text-anchor="middle" x="0" y="459" style="font-family: 'Times New Roman'; font-size: 20px; fill: rgb(0, 0, 0); fill-opacity: 1; white-space: pre; opacity: 1;" transform="translate(354.53,0)">−1.5</text></g><g class="xtick"><text text-anchor="middle" x="0" y="459" style="font-family: 'Times New Roman'; font-size: 20px; fill: rgb(0, 0, 0); fill-opacity: 1; white-space: pre; opacity: 1;" transform="translate(519.85,0)">−1</text></g></g><g class="yaxislayer-above"><g class="ytick"><text text-anchor="end" x="73" y="7" transform="translate(0,396.47)" style="font-family: 'Times New Roman'; font-size: 20px; fill: rgb(0, 0, 0); fill-opacity: 1; white-space: pre; opacity: 1;">−1</text></g><g class="ytick"><text text-anchor="end" x="73" y="7" style="font-family: 'Times New Roman'; font-size: 20px; fill: rgb(0, 0, 0); fill-opacity: 1; white-space: pre; opacity: 1;" transform="translate(0,306.57)">−0.5</text></g><g class="ytick"><text text-anchor="end" x="73" y="7" style="font-family: 'Times New Roman'; font-size: 20px; fill: rgb(0, 0, 0); fill-opacity: 1; white-space: pre; opacity: 1;" transform="translate(0,216.68)">0</text></g><g class="ytick"><text text-anchor="end" x="73" y="7" style="font-family: 'Times New Roman'; font-size: 20px; fill: rgb(0, 0, 0); fill-opacity: 1; white-space: pre; opacity: 1;" transform="translate(0,126.78)">0.5</text></g><g class="ytick"><text text-anchor="end" x="73" y="7" style="font-family: 'Times New Roman'; font-size: 20px; fill: rgb(0, 0, 0); fill-opacity: 1; white-space: pre; opacity: 1;" transform="translate(0,36.879999999999995)">1</text></g></g><g class="overaxes-above"/></g></g><g class="polarlayer"/><g class="smithlayer"/><g class="ternarylayer"/><g class="geolayer"/><g class="funnelarealayer"/><g class="pielayer"/><g class="iciclelayer"/><g class="treemaplayer"/><g class="sunburstlayer"/><g class="glimages"/><defs id="topdefs-25e4b6"><g class="clips"/></defs><g class="layer-above"><g class="imagelayer"/><g class="shapelayer"/></g><g class="infolayer"><g class="g-gtitle"/><g class="g-xtitle" transform="translate(0,-0.48750000000001137)"><text class="xtitle" x="379.5" y="495.3" text-anchor="middle" style="font-family: 'Times New Roman'; font-size: 24px; fill: rgb(0, 0, 0); opacity: 1; font-weight: normal; white-space: pre;">Bond/IOU Holdings</text></g><g class="g-ytitle" transform="translate(16.5810546875,0)"><text class="ytitle" transform="rotate(-90,4.918750000000003,221.5)" x="4.918750000000003" y="221.5" text-anchor="middle" style="font-family: 'Times New Roman'; font-size: 24px; fill: rgb(0, 0, 0); opacity: 1; font-weight: normal; white-space: pre;">Percent Deviation</text></g></g></svg>