<svg class="main-svg" xmlns="http://www.w3.org/2000/svg" xmlns:xlink="http://www.w3.org/1999/xlink" width="700" height="500" style="" viewBox="0 0 700 500"><rect x="0" y="0" width="700" height="500" style="fill: rgb(255, 255, 255); fill-opacity: 1;"/><defs id="defs-1f5785"><g class="clips"><clipPath id="clip1f5785xyplot" class="plotclip"><rect width="611" height="433"/></clipPath><clipPath class="axesclip" id="clip1f5785x"><rect x="74" y="0" width="611" height="500"/></clipPath><clipPath class="axesclip" id="clip1f5785y"><rect x="0" y="5" width="700" height="433"/></clipPath><clipPath class="axesclip" id="clip1f5785xy"><rect x="74" y="5" width="611" height="433"/></clipPath></g><g class="gradients"/><g class="patterns"/></defs><g class="bglayer"><rect class="bg" x="74" y="5" width="611" height="433" style="fill: rgb(245, 245, 245); fill-opacity: 1; stroke-width: 0;"/></g><g class="layer-below"><g class="imagelayer"/><g class="shapelayer"/></g><g class="cartesianlayer"><g class="subplot xy"><g class="layer-subplot"><g class="shapelayer"/><g class="imagelayer"/></g><g class="minor-gridlayer"><g class="x"/><g class="y"/></g><g class="gridlayer"><g class="x"><path class="xgrid crisp" transform="translate(189.22,0)" d="M0,5v433" style="stroke: rgb(255, 255, 255); stroke-opacity: 1; stroke-width: 1px;"/><path class="xgrid crisp" transform="translate(354.53,0)" d="M0,5v433" style="stroke: rgb(255, 255, 255); stroke-opacity: 1; stroke-width: 1px;"/><path class="xgrid crisp" transform="translate(519.85,0)" d="M0,5v433" style="stroke: rgb(255, 255, 255); stroke-opacity: 1; stroke-width: 1px;"/></g><g class="y"><path class="ygrid crisp" transform="translate(0,434.2)" d="M74,0h611" style="stroke: rgb(255, 255, 255); stroke-opacity: 1; stroke-width: 1px;"/><path class="ygrid crisp" transform="translate(0,261.31)" d="M74,0h611" style="stroke: rgb(255, 255, 255); stroke-opacity: 1; stroke-width: 1px;"/><path class="ygrid crisp" transform="translate(0,174.87)" d="M74,0h611" style="stroke: rgb(255, 255, 255); stroke-opacity: 1; stroke-width: 1px;"/><path class="ygrid crisp" transform="translate(0,88.43)" d="M74,0h611" style="stroke: rgb(255, 255, 255); stroke-opacity: 1; stroke-width: 1px;"/></g></g><g class="zerolinelayer"><path class="yzl zl crisp" transform="translate(0,347.76)" d="M74,0h611" style="stroke: rgb(255, 255, 255); stroke-opacity: 1; stroke-width: 2px;"/></g><path class="xlines-below"/><path class="ylines-below"/><g class="overlines-below"/><g class="xaxislayer-below"/><g class="yaxislayer-below"/><g class="overaxes-below"/><g class="plot" transform="translate(74,5)" clip-path="url(#clip1f5785xyplot)"><g class="scatterlayer mlayer"><g class="trace scatter trace963c2a" style="stroke-miterlimit: 2; opacity: 1;"><g class="fills"/><g class="errorbars"/><g class="lines"><path class="js-line" d="M0.1,388.91L0.28,387.93L0.94,399.06L1.1,408.14L1.27,408.49L1.48,418.25L3.66,448.08L4.25,442.75L5.74,465.5L6.04,460.03L6.67,462.44L7.76,462.76L8.96,409.14L9.01,395.83L9.2,449.96L10.47,455.35L12.16,461.89L12.47,405.9L14.13,458.42L15.85,443.84L16.4,408.98L16.6,420.65L19.04,415.72L19.34,450.91L22.1,440.58L22.94,452.15L23.11,422.34L25.65,409.78L26.66,422.76L28.66,437.85L29.75,415.71L30.5,415.36L33.41,403.11L34.47,413.94L34.49,429.52L37.48,399.91L38.57,440.9L39.97,380.65L40.95,407.56L42.8,431.11L43.93,376.89L46.3,383.32L46.49,430.93L47.17,394.01L48.68,375.73L51.69,424.33L52.17,374.7L53.55,361.69L53.6,364.7L54.74,369.65L55.76,416.04L56.35,389.58L57.39,362.6L58.03,362.04L59.07,361.65L59.48,411.81L60.13,360.82L60.4,411.02L60.62,423.57L60.81,431.07L60.98,360.54" style="vector-effect: non-scaling-stroke; fill: none; stroke: rgb(0, 0, 0); stroke-opacity: 1; stroke-width: 0px; opacity: 1;"/><path class="js-line" d="M62,373.4L66.14,382.9L71.27,378.56L99.59,360.99L105.82,357.69L140.17,341.1L147.73,337.84L155.54,334.33L163.6,327.77L171.93,327.84L180.53,323.78L260.3,288.12L271.79,281.78L283.66,277.44L295.92,271.77L335.17,252.8L349.12,247.22L378.4,230.49L393.76,225.91L409.63,215.27L426.02,206.78L442.94,199.91L460.42,190.45L478.47,176.05L497.11,166.19L516.37,157.01L536.25,143.11L556.78,128.67L577.99,109.5L599.89,89.6L622.51,86.15L645.87,51.63L670,24.5" style="vector-effect: non-scaling-stroke; fill: none; stroke: rgb(0, 0, 0); stroke-opacity: 1; stroke-width: 0px; opacity: 1;"/><path class="js-line" d="M0.09,343.67L0.26,342.8L0.86,352.64L1,360.66L1.16,360.97L1.35,369.59L3.34,395.95L3.88,391.24L5.24,411.35L5.5,406.51L6.09,408.65L7.07,408.93L8.17,361.55L8.22,349.78L8.39,397.62L9.55,402.38L11.09,408.16L11.37,358.68L12.88,405.1L14.45,392.21L14.96,361.41L15.14,371.72L17.37,367.36L17.64,398.45L20.16,389.33L20.92,399.56L21.07,373.21L23.39,362.12L24.31,373.58L26.14,386.92L27.13,367.35L27.82,367.04L30.47,356.22L31.44,365.79L31.45,379.55L34.18,353.39L35.17,389.61L36.45,336.37L37.35,360.15L39.03,380.96L40.07,333.05L42.22,338.73L42.39,380.8L43.02,348.17L44.39,332.02L47.14,374.97L47.57,331.11L48.83,319.62L48.88,322.28L49.92,326.65L50.85,367.64L51.39,344.26L52.33,320.42L52.92,319.93L53.87,319.58L54.24,363.91L54.84,318.85L55.08,363.21L55.28,374.3L55.46,380.92L55.61,318.6" style="vector-effect: non-scaling-stroke; fill: none; stroke: rgb(31, 119, 180); stroke-opacity: 1; stroke-width: 4px; opacity: 1;"/><path class="js-line" d="M56.54,329.96L60.31,338.36L65,334.53L90.82,318.99L96.5,316.08L134.72,298.54L141.84,295.44L149.2,289.64L156.79,289.7L227.22,258.56L237.37,254.61L247.86,249L258.68,245.17L318.37,218.46L331.51,211.07L345.08,203.68L359.09,199.63L373.56,190.23L388.5,182.73L403.94,176.66L419.88,168.3L436.34,155.57L453.34,146.86L470.9,138.75L489.03,126.46L507.75,113.71L527.09,96.76L547.07,79.17L567.7,76.12L589,45.62L611,21.65" style="vector-effect: non-scaling-stroke; fill: none; stroke: rgb(31, 119, 180); stroke-opacity: 1; stroke-width: 4px; opacity: 1;"/></g><g class="points"/><g class="text"/></g></g></g><g class="overplot"/><path class="xlines-above crisp" d="M0,0" style="fill: none;"/><path class="ylines-above crisp" d="M0,0" style="fill: none;"/><g class="overlines-above"/><g class="xaxislayer-above"><g class="xtick"><text text-anchor="middle" x="0" y="459" transform="translate(189.22,0)" style="font-family: 'Times New Roman'; font-size: 20px; fill: rgb(0, 0, 0); fill-opacity: 1; white-space: pre; opacity: 1;">−2</text></g><g class="xtick"><text text-anchor="middle" x="0" y="459" style="font-family: 'Times New Roman'; font-size: 20px; fill: rgb(0, 0, 0); fill-opacity: 1; white-space: pre; opacity: 1;" transform="translate(354.53,0)">−1.5</text></g><g class="xtick"><text text-anchor="middle" x="0" y="459" style="font-family: 'Times New Roman'; font-size: 20px; fill: rgb(0, 0, 0); fill-opacity: 1; white-space: pre; opacity: 1;" transform="translate(519.85,0)">−1</text></g></g><g class="yaxislayer-above"><g class="ytick"><text text-anchor="end" x="73" y="7" transform="translate(0,434.2)" style="font-family: 'Times New Roman'; font-size: 20px; fill: rgb(0, 0, 0); fill-opacity: 1; white-space: pre; opacity: 1;">−0.1</text></g><g class="ytick"><text text-anchor="end" x="73" y="7" style="font-family: 'Times New Roman'; font-size: 20px; fill: rgb(0, 0, 0); fill-opacity: 1; white-space: pre; opacity: 1;" transform="translate(0,347.76)">0</text></g><g class="ytick"><text text-anchor="end" x="73" y="7" style="font-family: 'Times New Roman'; font-size: 20px; fill: rgb(0, 0, 0); fill-opacity: 1; white-space: pre; opacity: 1;" transform="translate(0,261.31)">0.1</text></g><g class="ytick"><text text-anchor="end" x="73" y="7" style="font-family: 'Times New Roman'; font-size: 20px; fill: rgb(0, 0, 0); fill-opacity: 1; white-space: pre; opacity: 1;" transform="translate(0,174.87)">0.2</text></g><g class="ytick"><text text-anchor="end" x="73" y="7" style="font-family: 'Times New Roman'; font-size: 20px; fill: rgb(0, 0, 0); fill-opacity: 1; white-space: pre; opacity: 1;" transform="translate(0,88.43)">0.3</text></g></g><g class="overaxes-above"/></g></g><g class="polarlayer"/><g class="smithlayer"/><g class="ternarylayer"/><g class="geolayer"/><g class="funnelarealayer"/><g class="pielayer"/><g class="iciclelayer"/><g class="treemaplayer"/><g class="sunburstlayer"/><g class="glimages"/><defs id="topdefs-1f5785"><g class="clips"/></defs><g class="layer-above"><g class="imagelayer"/><g class="shapelayer"/></g><g class="infolayer"><g class="g-gtitle"/><g class="g-xtitle" transform="translate(0,-0.48750000000001137)"><text class="xtitle" x="379.5" y="495.3" text-anchor="middle" style="font-family: 'Times New Roman'; font-size: 24px; fill: rgb(0, 0, 0); opacity: 1; font-weight: normal; white-space: pre;">Bond/IOU Holdings</text></g><g class="g-ytitle" transform="translate(16.5810546875,0)"><text class="ytitle" transform="rotate(-90,4.918750000000003,221.5)" x="4.918750000000003" y="221.5" text-anchor="middle" style="font-family: 'Times New Roman'; font-size: 24px; fill: rgb(0, 0, 0); opacity: 1; font-weight: normal; white-space: pre;">Percent Deviation</text></g></g></svg>