<svg class="main-svg" xmlns="http://www.w3.org/2000/svg" xmlns:xlink="http://www.w3.org/1999/xlink" width="700" height="500" style="" viewBox="0 0 700 500"><rect x="0" y="0" width="700" height="500" style="fill: rgb(255, 255, 255); fill-opacity: 1;"/><defs id="defs-d4d1db"><g class="clips"><clipPath id="clipd4d1dbxyplot" class="plotclip"><rect width="637" height="429"/></clipPath><clipPath class="axesclip" id="clipd4d1dbx"><rect x="48" y="0" width="637" height="500"/></clipPath><clipPath class="axesclip" id="clipd4d1dby"><rect x="0" y="9" width="700" height="429"/></clipPath><clipPath class="axesclip" id="clipd4d1dbxy"><rect x="48" y="9" width="637" height="429"/></clipPath></g><g class="gradients"/><g class="patterns"/></defs><g class="bglayer"><rect class="bg" x="48" y="9" width="637" height="429" style="fill: rgb(245, 245, 245); fill-opacity: 1; stroke-width: 0;"/></g><g class="layer-below"><g class="imagelayer"/><g class="shapelayer"/></g><g class="cartesianlayer"><g class="subplot xy"><g class="layer-subplot"><g class="shapelayer"/><g class="imagelayer"/></g><g class="minor-gridlayer"><g class="x"/><g class="y"/></g><g class="gridlayer"><g class="x"><path class="xgrid crisp" transform="translate(193.38,0)" d="M0,9v429" style="stroke: rgb(255, 255, 255); stroke-opacity: 1; stroke-width: 1px;"/><path class="xgrid crisp" transform="translate(292.19,0)" d="M0,9v429" style="stroke: rgb(255, 255, 255); stroke-opacity: 1; stroke-width: 1px;"/><path class="xgrid crisp" transform="translate(391,0)" d="M0,9v429" style="stroke: rgb(255, 255, 255); stroke-opacity: 1; stroke-width: 1px;"/><path class="xgrid crisp" transform="translate(489.82,0)" d="M0,9v429" style="stroke: rgb(255, 255, 255); stroke-opacity: 1; stroke-width: 1px;"/><path class="xgrid crisp" transform="translate(588.63,0)" d="M0,9v429" style="stroke: rgb(255, 255, 255); stroke-opacity: 1; stroke-width: 1px;"/></g><g class="y"><path class="ygrid crisp" transform="translate(0,336.2)" d="M48,0h637" style="stroke: rgb(255, 255, 255); stroke-opacity: 1; stroke-width: 1px;"/><path class="ygrid crisp" transform="translate(0,255.86)" d="M48,0h637" style="stroke: rgb(255, 255, 255); stroke-opacity: 1; stroke-width: 1px;"/><path class="ygrid crisp" transform="translate(0,175.51)" d="M48,0h637" style="stroke: rgb(255, 255, 255); stroke-opacity: 1; stroke-width: 1px;"/><path class="ygrid crisp" transform="translate(0,95.17)" d="M48,0h637" style="stroke: rgb(255, 255, 255); stroke-opacity: 1; stroke-width: 1px;"/><path class="ygrid crisp" transform="translate(0,14.82)" d="M48,0h637" style="stroke: rgb(255, 255, 255); stroke-opacity: 1; stroke-width: 1px;"/></g></g><g class="zerolinelayer"><path class="xzl zl crisp" transform="translate(94.57,0)" d="M0,9v429" style="stroke: rgb(255, 255, 255); stroke-opacity: 1; stroke-width: 2px;"/><path class="yzl zl crisp" transform="translate(0,416.55)" d="M48,0h637" style="stroke: rgb(255, 255, 255); stroke-opacity: 1; stroke-width: 2px;"/></g><path class="xlines-below"/><path class="ylines-below"/><g class="overlines-below"/><g class="xaxislayer-below"/><g class="yaxislayer-below"/><g class="overaxes-below"/><g class="plot" transform="translate(48,9)" clip-path="url(#clipd4d1dbxyplot)"><g class="scatterlayer mlayer"><g class="trace scatter trace5da8ed" style="stroke-miterlimit: 2; opacity: 1;"><g class="fills"/><g class="errorbars"/><g class="lines"><path class="js-line" d="M0,21.45L0.68,390.52L0.86,383.9L1.05,386.02L1.25,386.13L1.45,384.61L1.73,397.99L2.1,384.25L2.33,384.86L3.4,407.55L3.4,402.79L3.61,384.09L4.47,382.04L4.78,382.01L5.1,381.38L5.43,381.66L5.77,381.76L8.48,382.43L8.92,379.27L9.84,381.77L10.32,382.03L19.82,372.4L20.63,371.77L25.1,367.2L26.08,366.71L30.35,363.09L31.51,362.43L35.21,359.45L36.52,358.87L40.73,354.24L42.23,355.04L43.77,351.96L45.37,360.14L46.57,379.02L47.02,372.39L48.72,350.78L50.48,349.94L52.29,348.31L54.17,347.97L64.5,343.26L66.78,342.45L87.87,334.39L90.91,333.47L111.36,328.61L115.17,324.7L119.11,327.04L123.17,326.87L131.7,324.64L136.18,324.48L155.6,324.12L160.85,324.19L177.69,324.56L183.67,324.88L216.65,327.85L223.91,328.66L272.74,335.35L281.83,336.72L331.98,344.16L343.02,345.98L445.37,362.96L460.12,365.2L524.12,374.06L541.45,375.83L596.92,382.57L616.64,384.5L637,386.36" style="vector-effect: non-scaling-stroke; fill: none; stroke: rgb(31, 119, 180); stroke-opacity: 1; stroke-width: 2px; opacity: 1;"/></g><g class="points"/><g class="text"/></g><g class="trace scatter trace84361f" style="stroke-miterlimit: 2; opacity: 1;"><g class="fills"/><g class="errorbars"/><g class="lines"><path class="js-line" d="M0,78.43L0.86,392.91L1.05,387.07L1.66,399.4L1.88,395.23L2.1,388.46L2.33,389.17L2.57,394.67L2.82,392.33L3.3,405.24L3.33,407.55L3.88,386.29L4.17,386.51L4.78,385.78L5.1,384.71L6.48,383.79L6.86,383.53L10.82,381.29L11.34,381.68L11.87,381.53L12.43,378.22L14.19,379.42L14.82,378.28L25.1,367.45L26.08,366.36L31.51,361.32L32.7,359.98L37.88,355.04L39.28,353.97L43.77,347.12L45.37,354.7L46.57,374.95L47.02,371.17L48.72,345.29L50.48,344.6L52.29,342.98L56.1,341.85L58.1,340.56L62.3,339.19L64.5,338.3L74.06,334.87L76.64,333.74L87.87,330.45L90.91,329.65L111.36,325.24L115.17,322.46L119.11,322.31L123.17,323.73L131.7,321.62L136.18,321.6L155.6,321.6L160.85,321.78L177.69,322.48L183.67,322.97L209.62,325.68L216.65,326.56L255.4,332.17L263.93,333.51L354.42,348.35L366.19,350.43L445.37,363.85L460.12,366.14L507.34,372.89L524.12,374.57L559.35,379.65L577.83,381.63L637,387.33" style="vector-effect: non-scaling-stroke; fill: none; stroke: rgb(255, 127, 14); stroke-opacity: 1; stroke-width: 2px; opacity: 1;"/></g><g class="points"/><g class="text"/></g></g></g><g class="overplot"/><path class="xlines-above crisp" d="M0,0" style="fill: none;"/><path class="ylines-above crisp" d="M0,0" style="fill: none;"/><g class="overlines-above"/><g class="xaxislayer-above"><g class="xtick"><text text-anchor="middle" x="0" y="459" transform="translate(94.57,0)" style="font-family: 'Times New Roman'; font-size: 20px; fill: rgb(0, 0, 0); fill-opacity: 1; white-space: pre; opacity: 1;">0</text></g><g class="xtick"><text text-anchor="middle" x="0" y="459" style="font-family: 'Times New Roman'; font-size: 20px; fill: rgb(0, 0, 0); fill-opacity: 1; white-space: pre; opacity: 1;" transform="translate(193.38,0)">5</text></g><g class="xtick"><text text-anchor="middle" x="0" y="459" style="font-family: 'Times New Roman'; font-size: 20px; fill: rgb(0, 0, 0); fill-opacity: 1; white-space: pre; opacity: 1;" transform="translate(292.19,0)">10</text></g><g class="xtick"><text text-anchor="middle" x="0" y="459" style="font-family: 'Times New Roman'; font-size: 20px; fill: rgb(0, 0, 0); fill-opacity: 1; white-space: pre; opacity: 1;" transform="translate(391,0)">15</text></g><g class="xtick"><text text-anchor="middle" x="0" y="459" style="font-family: 'Times New Roman'; font-size: 20px; fill: rgb(0, 0, 0); fill-opacity: 1; white-space: pre; opacity: 1;" transform="translate(489.82,0)">20</text></g><g class="xtick"><text text-anchor="middle" x="0" y="459" style="font-family: 'Times New Roman'; font-size: 20px; fill: rgb(0, 0, 0); fill-opacity: 1; white-space: pre; opacity: 1;" transform="translate(588.63,0)">25</text></g></g><g class="yaxislayer-above"><g class="ytick"><text text-anchor="end" x="47" y="7" transform="translate(0,416.55)" style="font-family: 'Times New Roman'; font-size: 20px; fill: rgb(0, 0, 0); fill-opacity: 1; white-space: pre; opacity: 1;">0</text></g><g class="ytick"><text text-anchor="end" x="47" y="7" style="font-family: 'Times New Roman'; font-size: 20px; fill: rgb(0, 0, 0); fill-opacity: 1; white-space: pre; opacity: 1;" transform="translate(0,336.2)">1</text></g><g class="ytick"><text text-anchor="end" x="47" y="7" style="font-family: 'Times New Roman'; font-size: 20px; fill: rgb(0, 0, 0); fill-opacity: 1; white-space: pre; opacity: 1;" transform="translate(0,255.86)">2</text></g><g class="ytick"><text text-anchor="end" x="47" y="7" style="font-family: 'Times New Roman'; font-size: 20px; fill: rgb(0, 0, 0); fill-opacity: 1; white-space: pre; opacity: 1;" transform="translate(0,175.51)">3</text></g><g class="ytick"><text text-anchor="end" x="47" y="7" style="font-family: 'Times New Roman'; font-size: 20px; fill: rgb(0, 0, 0); fill-opacity: 1; white-space: pre; opacity: 1;" transform="translate(0,95.17)">4</text></g><g class="ytick"><text text-anchor="end" x="47" y="7" style="font-family: 'Times New Roman'; font-size: 20px; fill: rgb(0, 0, 0); fill-opacity: 1; white-space: pre; opacity: 1;" transform="translate(0,14.82)">5</text></g></g><g class="overaxes-above"/></g></g><g class="polarlayer"/><g class="smithlayer"/><g class="ternarylayer"/><g class="geolayer"/><g class="funnelarealayer"/><g class="pielayer"/><g class="iciclelayer"/><g class="treemaplayer"/><g class="sunburstlayer"/><g class="glimages"/><defs id="topdefs-d4d1db"><g class="clips"/><clipPath id="legendd4d1db"><rect width="146" height="89" x="0" y="0"/></clipPath></defs><g class="layer-above"><g class="imagelayer"/><g class="shapelayer"/></g><g class="infolayer"><g class="legend" pointer-events="all" transform="translate(526.26,17.580000000000005)"><rect class="bg" shape-rendering="crispEdges" width="146" height="89" x="0" y="0" style="stroke: rgb(68, 68, 68); stroke-opacity: 1; fill: rgb(255, 255, 255); fill-opacity: 1; stroke-width: 0px;"/><g class="scrollbox" transform="" clip-path="url(#legendd4d1db)"><g class="groups" transform=""><g class="traces" transform="translate(0,24.7)" style="opacity: 1;"><text class="legendtext" text-anchor="start" x="40" y="10.92" style="font-family: 'Times New Roman'; font-size: 28px; fill: rgb(0, 0, 0); fill-opacity: 1; white-space: pre;">Initial</text><g class="layers" style="opacity: 1;"><g class="legendfill"/><g class="legendlines"><path class="js-line" d="M5,0h30" style="fill: none; stroke: rgb(31, 119, 180); stroke-opacity: 1; stroke-width: 2px;"/></g><g class="legendsymbols"><g class="legendpoints"/></g></g><rect class="legendtoggle" x="0" y="-19.7" width="140.671875" height="39.4" style="fill: rgb(0, 0, 0); fill-opacity: 0;"/></g></g><g class="groups" transform=""><g class="traces" transform="translate(0,64.1)" style="opacity: 1;"><text class="legendtext" text-anchor="start" x="40" y="10.92" style="font-family: 'Times New Roman'; font-size: 28px; fill: rgb(0, 0, 0); fill-opacity: 1; white-space: pre;">Terminal</text><g class="layers" style="opacity: 1;"><g class="legendfill"/><g class="legendlines"><path class="js-line" d="M5,0h30" style="fill: none; stroke: rgb(255, 127, 14); stroke-opacity: 1; stroke-width: 2px;"/></g><g class="legendsymbols"><g class="legendpoints"/></g></g><rect class="legendtoggle" x="0" y="-19.7" width="140.671875" height="39.4" style="fill: rgb(0, 0, 0); fill-opacity: 0;"/></g></g></g><rect class="scrollbar" rx="20" ry="3" width="0" height="0" x="0" y="0" style="fill: rgb(128, 139, 164); fill-opacity: 1;"/></g><g class="g-gtitle"/><g class="g-xtitle" transform="translate(0,-0.48750000000001137)"><text class="xtitle" x="366.5" y="495.3" text-anchor="middle" style="font-family: 'Times New Roman'; font-size: 24px; fill: rgb(0, 0, 0); opacity: 1; font-weight: normal; white-space: pre;">Bond/IOU Holdings</text></g><g class="g-ytitle" transform="translate(16.2998046875,0)"><text class="ytitle" transform="rotate(-90,5.200000000000003,223.5)" x="5.200000000000003" y="223.5" text-anchor="middle" style="font-family: 'Times New Roman'; font-size: 24px; fill: rgb(0, 0, 0); opacity: 1; font-weight: normal; white-space: pre;">Percent</text></g></g></svg>