<svg class="main-svg" xmlns="http://www.w3.org/2000/svg" xmlns:xlink="http://www.w3.org/1999/xlink" width="700" height="500" style="" viewBox="0 0 700 500"><rect x="0" y="0" width="700" height="500" style="fill: rgb(255, 255, 255); fill-opacity: 1;"/><defs id="defs-233d4a"><g class="clips"><clipPath id="clip233d4axyplot" class="plotclip"><rect width="601" height="431"/></clipPath><clipPath class="axesclip" id="clip233d4ax"><rect x="84" y="0" width="601" height="500"/></clipPath><clipPath class="axesclip" id="clip233d4ay"><rect x="0" y="7" width="700" height="431"/></clipPath><clipPath class="axesclip" id="clip233d4axy"><rect x="84" y="7" width="601" height="431"/></clipPath></g><g class="gradients"/><g class="patterns"/></defs><g class="bglayer"><rect class="bg" x="84" y="7" width="601" height="431" style="fill: rgb(245, 245, 245); fill-opacity: 1; stroke-width: 0;"/></g><g class="layer-below"><g class="imagelayer"/><g class="shapelayer"/></g><g class="cartesianlayer"><g class="subplot xy"><g class="layer-subplot"><g class="shapelayer"/><g class="imagelayer"/></g><g class="minor-gridlayer"><g class="x"/><g class="y"/></g><g class="gridlayer"><g class="x"><path class="xgrid crisp" transform="translate(197.34,0)" d="M0,7v431" style="stroke: rgb(255, 255, 255); stroke-opacity: 1; stroke-width: 1px;"/><path class="xgrid crisp" transform="translate(359.94,0)" d="M0,7v431" style="stroke: rgb(255, 255, 255); stroke-opacity: 1; stroke-width: 1px;"/><path class="xgrid crisp" transform="translate(522.55,0)" d="M0,7v431" style="stroke: rgb(255, 255, 255); stroke-opacity: 1; stroke-width: 1px;"/></g><g class="y"><path class="ygrid crisp" transform="translate(0,406.63)" d="M84,0h601" style="stroke: rgb(255, 255, 255); stroke-opacity: 1; stroke-width: 1px;"/><path class="ygrid crisp" transform="translate(0,357.7)" d="M84,0h601" style="stroke: rgb(255, 255, 255); stroke-opacity: 1; stroke-width: 1px;"/><path class="ygrid crisp" transform="translate(0,259.84000000000003)" d="M84,0h601" style="stroke: rgb(255, 255, 255); stroke-opacity: 1; stroke-width: 1px;"/><path class="ygrid crisp" transform="translate(0,210.91)" d="M84,0h601" style="stroke: rgb(255, 255, 255); stroke-opacity: 1; stroke-width: 1px;"/><path class="ygrid crisp" transform="translate(0,161.98)" d="M84,0h601" style="stroke: rgb(255, 255, 255); stroke-opacity: 1; stroke-width: 1px;"/><path class="ygrid crisp" transform="translate(0,113.06)" d="M84,0h601" style="stroke: rgb(255, 255, 255); stroke-opacity: 1; stroke-width: 1px;"/><path class="ygrid crisp" transform="translate(0,64.13)" d="M84,0h601" style="stroke: rgb(255, 255, 255); stroke-opacity: 1; stroke-width: 1px;"/><path class="ygrid crisp" transform="translate(0,15.2)" d="M84,0h601" style="stroke: rgb(255, 255, 255); stroke-opacity: 1; stroke-width: 1px;"/></g></g><g class="zerolinelayer"><path class="yzl zl crisp" transform="translate(0,308.77)" d="M84,0h601" style="stroke: rgb(255, 255, 255); stroke-opacity: 1; stroke-width: 2px;"/></g><path class="xlines-below"/><path class="ylines-below"/><g class="overlines-below"/><g class="xaxislayer-below"/><g class="yaxislayer-below"/><g class="overaxes-below"/><g class="plot" transform="translate(84,7)" clip-path="url(#clip233d4axyplot)"><g class="scatterlayer mlayer"><g class="trace scatter trace68bb65" style="stroke-miterlimit: 2; opacity: 1;"><g class="fills"/><g class="errorbars"/><g class="lines"><path class="js-line" d="M0.13,346.4L0.21,343.33L0.87,354.42L1.4,388.09L2.26,390.84L2.97,415.59L5.88,436.7L6.04,445.88L9.2,416.21L9.46,455.87L12.47,458.98L15.2,457.38L15.85,416.97L19.34,430.92L22.94,412.22L24.11,430.9L24.39,465.5L26.66,413.71L34.47,407.14L38.57,370.64L38.72,443.94L38.99,398.67L42.8,395.44L47.17,400.3L47.64,371.44L51.69,405.98L53.13,357.15L56.35,419.56L56.51,344.29L58.6,343.35L59.89,401.73L61.16,435.01" style="vector-effect: non-scaling-stroke; fill: none; stroke: rgb(0, 0, 0); stroke-opacity: 1; stroke-width: 0px; opacity: 1;"/><path class="js-line" d="M0.12,304.69L0.19,301.99L0.78,311.74L1.26,341.36L2.03,343.78L2.66,365.55L5.27,384.12L5.41,392.19L8.25,366.1L8.48,400.98L11.19,403.72L13.64,402.31L14.22,366.77L17.35,379.03L20.58,362.58L21.63,379.02L21.88,409.45L23.92,363.89L30.92,358.12L34.6,326.02L34.73,390.49L34.97,350.67L38.39,347.82L42.31,352.1L42.74,326.71L46.36,357.09L47.66,314.14L50.55,369.04L50.69,302.84L52.56,302.01L53.72,353.35L54.87,382.63" style="vector-effect: non-scaling-stroke; fill: none; stroke: rgb(31, 119, 180); stroke-opacity: 1; stroke-width: 4px; opacity: 1;"/><path class="js-line" d="M55.16,300.13L55.44,299.96" style="vector-effect: non-scaling-stroke; fill: none; stroke: rgb(31, 119, 180); stroke-opacity: 1; stroke-width: 4px; opacity: 1;"/><path class="js-line" d="M55.61,314.89L59.33,325.88L63.93,321.03L89.33,302.6L94.92,299.27L119.17,286.2L125.73,282.65L139.52,276.08L146.75,269.46L154.22,269.82L161.94,265.87L223.5,236.63L233.49,232.65L243.8,226.76L254.45,222.87L313.16,196.17L326.09,188.72L339.43,181.44L353.21,177.85L367.45,168.49L382.14,161.26L397.33,155.93L413,148.23L429.2,135.9L445.92,128.26L463.19,121.42L481.02,109.87L499.44,98.61L518.47,83.58L538.11,68.4L558.4,69.84L579.36,40.41L601,21.55" style="vector-effect: non-scaling-stroke; fill: none; stroke: rgb(31, 119, 180); stroke-opacity: 1; stroke-width: 4px; opacity: 1;"/></g><g class="points"/><g class="text"/></g></g></g><g class="overplot"/><path class="xlines-above crisp" d="M0,0" style="fill: none;"/><path class="ylines-above crisp" d="M0,0" style="fill: none;"/><g class="overlines-above"/><g class="xaxislayer-above"><g class="xtick"><text text-anchor="middle" x="0" y="459" transform="translate(197.34,0)" style="font-family: 'Times New Roman'; font-size: 20px; fill: rgb(0, 0, 0); fill-opacity: 1; white-space: pre; opacity: 1;">−2</text></g><g class="xtick"><text text-anchor="middle" x="0" y="459" style="font-family: 'Times New Roman'; font-size: 20px; fill: rgb(0, 0, 0); fill-opacity: 1; white-space: pre; opacity: 1;" transform="translate(359.94,0)">−1.5</text></g><g class="xtick"><text text-anchor="middle" x="0" y="459" style="font-family: 'Times New Roman'; font-size: 20px; fill: rgb(0, 0, 0); fill-opacity: 1; white-space: pre; opacity: 1;" transform="translate(522.55,0)">−1</text></g></g><g class="yaxislayer-above"><g class="ytick"><text text-anchor="end" x="83" y="7" transform="translate(0,406.63)" style="font-family: 'Times New Roman'; font-size: 20px; fill: rgb(0, 0, 0); fill-opacity: 1; white-space: pre; opacity: 1;">−0.1</text></g><g class="ytick"><text text-anchor="end" x="83" y="7" style="font-family: 'Times New Roman'; font-size: 20px; fill: rgb(0, 0, 0); fill-opacity: 1; white-space: pre; opacity: 1;" transform="translate(0,357.7)">−0.05</text></g><g class="ytick"><text text-anchor="end" x="83" y="7" style="font-family: 'Times New Roman'; font-size: 20px; fill: rgb(0, 0, 0); fill-opacity: 1; white-space: pre; opacity: 1;" transform="translate(0,308.77)">0</text></g><g class="ytick"><text text-anchor="end" x="83" y="7" style="font-family: 'Times New Roman'; font-size: 20px; fill: rgb(0, 0, 0); fill-opacity: 1; white-space: pre; opacity: 1;" transform="translate(0,259.84000000000003)">0.05</text></g><g class="ytick"><text text-anchor="end" x="83" y="7" style="font-family: 'Times New Roman'; font-size: 20px; fill: rgb(0, 0, 0); fill-opacity: 1; white-space: pre; opacity: 1;" transform="translate(0,210.91)">0.1</text></g><g class="ytick"><text text-anchor="end" x="83" y="7" style="font-family: 'Times New Roman'; font-size: 20px; fill: rgb(0, 0, 0); fill-opacity: 1; white-space: pre; opacity: 1;" transform="translate(0,161.98)">0.15</text></g><g class="ytick"><text text-anchor="end" x="83" y="7" style="font-family: 'Times New Roman'; font-size: 20px; fill: rgb(0, 0, 0); fill-opacity: 1; white-space: pre; opacity: 1;" transform="translate(0,113.06)">0.2</text></g><g class="ytick"><text text-anchor="end" x="83" y="7" style="font-family: 'Times New Roman'; font-size: 20px; fill: rgb(0, 0, 0); fill-opacity: 1; white-space: pre; opacity: 1;" transform="translate(0,64.13)">0.25</text></g><g class="ytick"><text text-anchor="end" x="83" y="7" style="font-family: 'Times New Roman'; font-size: 20px; fill: rgb(0, 0, 0); fill-opacity: 1; white-space: pre; opacity: 1;" transform="translate(0,15.2)">0.3</text></g></g><g class="overaxes-above"/></g></g><g class="polarlayer"/><g class="smithlayer"/><g class="ternarylayer"/><g class="geolayer"/><g class="funnelarealayer"/><g class="pielayer"/><g class="iciclelayer"/><g class="treemaplayer"/><g class="sunburstlayer"/><g class="glimages"/><defs id="topdefs-233d4a"><g class="clips"/></defs><g class="layer-above"><g class="imagelayer"/><g class="shapelayer"/></g><g class="infolayer"><g class="g-gtitle"/><g class="g-xtitle" transform="translate(0,-0.48750000000001137)"><text class="xtitle" x="384.5" y="495.3" text-anchor="middle" style="font-family: 'Times New Roman'; font-size: 24px; fill: rgb(0, 0, 0); opacity: 1; font-weight: normal; white-space: pre;">Bond/IOU Holdings</text></g><g class="g-ytitle" transform="translate(16.5810546875,0)"><text class="ytitle" transform="rotate(-90,4.918750000000003,222.5)" x="4.918750000000003" y="222.5" text-anchor="middle" style="font-family: 'Times New Roman'; font-size: 24px; fill: rgb(0, 0, 0); opacity: 1; font-weight: normal; white-space: pre;">Percent Deviation</text></g></g></svg>