<svg class="main-svg" xmlns="http://www.w3.org/2000/svg" xmlns:xlink="http://www.w3.org/1999/xlink" width="700" height="500" style="" viewBox="0 0 700 500"><rect x="0" y="0" width="700" height="500" style="fill: rgb(255, 255, 255); fill-opacity: 1;"/><defs id="defs-7940ae"><g class="clips"><clipPath id="clip7940aexyplot" class="plotclip"><rect width="601" height="433"/></clipPath><clipPath class="axesclip" id="clip7940aex"><rect x="84" y="0" width="601" height="500"/></clipPath><clipPath class="axesclip" id="clip7940aey"><rect x="0" y="5" width="700" height="433"/></clipPath><clipPath class="axesclip" id="clip7940aexy"><rect x="84" y="5" width="601" height="433"/></clipPath></g><g class="gradients"/><g class="patterns"/></defs><g class="bglayer"><rect class="bg" x="84" y="5" width="601" height="433" style="fill: rgb(245, 245, 245); fill-opacity: 1; stroke-width: 0;"/></g><g class="layer-below"><g class="imagelayer"/><g class="shapelayer"/></g><g class="cartesianlayer"><g class="subplot xy"><g class="layer-subplot"><g class="shapelayer"/><g class="imagelayer"/></g><g class="minor-gridlayer"><g class="x"/><g class="y"/></g><g class="gridlayer"><g class="x"><path class="xgrid crisp" transform="translate(101.31,0)" d="M0,5v433" style="stroke: rgb(255, 255, 255); stroke-opacity: 1; stroke-width: 1px;"/><path class="xgrid crisp" transform="translate(299.97,0)" d="M0,5v433" style="stroke: rgb(255, 255, 255); stroke-opacity: 1; stroke-width: 1px;"/><path class="xgrid crisp" transform="translate(399.3,0)" d="M0,5v433" style="stroke: rgb(255, 255, 255); stroke-opacity: 1; stroke-width: 1px;"/><path class="xgrid crisp" transform="translate(498.63,0)" d="M0,5v433" style="stroke: rgb(255, 255, 255); stroke-opacity: 1; stroke-width: 1px;"/><path class="xgrid crisp" transform="translate(597.96,0)" d="M0,5v433" style="stroke: rgb(255, 255, 255); stroke-opacity: 1; stroke-width: 1px;"/></g><g class="y"><path class="ygrid crisp" transform="translate(0,387.05)" d="M84,0h601" style="stroke: rgb(255, 255, 255); stroke-opacity: 1; stroke-width: 1px;"/><path class="ygrid crisp" transform="translate(0,337.09)" d="M84,0h601" style="stroke: rgb(255, 255, 255); stroke-opacity: 1; stroke-width: 1px;"/><path class="ygrid crisp" transform="translate(0,287.13)" d="M84,0h601" style="stroke: rgb(255, 255, 255); stroke-opacity: 1; stroke-width: 1px;"/><path class="ygrid crisp" transform="translate(0,237.17)" d="M84,0h601" style="stroke: rgb(255, 255, 255); stroke-opacity: 1; stroke-width: 1px;"/><path class="ygrid crisp" transform="translate(0,187.21)" d="M84,0h601" style="stroke: rgb(255, 255, 255); stroke-opacity: 1; stroke-width: 1px;"/><path class="ygrid crisp" transform="translate(0,137.26)" d="M84,0h601" style="stroke: rgb(255, 255, 255); stroke-opacity: 1; stroke-width: 1px;"/><path class="ygrid crisp" transform="translate(0,87.3)" d="M84,0h601" style="stroke: rgb(255, 255, 255); stroke-opacity: 1; stroke-width: 1px;"/></g></g><g class="zerolinelayer"><path class="xzl zl crisp" transform="translate(200.64,0)" d="M0,5v433" style="stroke: rgb(255, 255, 255); stroke-opacity: 1; stroke-width: 2px;"/><path class="yzl zl crisp" transform="translate(0,37.34)" d="M84,0h601" style="stroke: rgb(255, 255, 255); stroke-opacity: 1; stroke-width: 2px;"/></g><path class="xlines-below"/><path class="ylines-below"/><g class="overlines-below"/><g class="xaxislayer-below"/><g class="yaxislayer-below"/><g class="overaxes-below"/><g class="plot" transform="translate(84,5)" clip-path="url(#clip7940aexyplot)"><g class="scatterlayer mlayer"><g class="trace scatter tracec434f0" style="stroke-miterlimit: 2; opacity: 1;"><g class="fills"/><g class="errorbars"/><g class="lines"><path class="js-line" d="M0,155.97L1.26,183.41L1.71,184.33L3.14,182.27L3.65,181.01L10.49,168.31L11.24,167.36L20.24,157.75L21.31,157.25L28.5,155.26L29.84,154.87L37.23,152.71L38.86,152.83L42.27,154.26L44.06,155.46L51.84,158.55L53.94,160.61L58.36,167.57L60.68,171.52L68.1,185.33L70.74,193.03L79.18,231.68L82.18,250.39L85.28,275.96L88.48,313.1L91.78,361.61" style="vector-effect: non-scaling-stroke; fill: none; stroke: rgb(31, 119, 180); stroke-opacity: 1; stroke-width: 4px; opacity: 1;"/><path class="js-line" d="M146.01,411.35L151.2,373.14L156.56,341.74L167.81,291.78L173.72,271.34L186.11,236.78L192.62,221.95L206.27,195.97L213.43,184.49L228.47,163.96L236.36,154.72L252.93,137.95L261.62,130.31L279.86,116.27L289.44,109.8L309.54,97.84L320.08,92.29L342.22,81.96L353.84,77.14L391.03,63.88L404.24,59.83L446.54,48.61L461.58,45.15L509.7,35.53L526.8,32.56L581.54,24.23L601,21.65" style="vector-effect: non-scaling-stroke; fill: none; stroke: rgb(31, 119, 180); stroke-opacity: 1; stroke-width: 4px; opacity: 1;"/></g><g class="points"/><g class="text"/></g></g></g><g class="overplot"/><path class="xlines-above crisp" d="M0,0" style="fill: none;"/><path class="ylines-above crisp" d="M0,0" style="fill: none;"/><g class="overlines-above"/><g class="xaxislayer-above"><g class="xtick"><text text-anchor="middle" x="0" y="459" transform="translate(101.31,0)" style="font-family: 'Times New Roman'; font-size: 20px; fill: rgb(0, 0, 0); fill-opacity: 1; white-space: pre; opacity: 1;">−2</text></g><g class="xtick"><text text-anchor="middle" x="0" y="459" style="font-family: 'Times New Roman'; font-size: 20px; fill: rgb(0, 0, 0); fill-opacity: 1; white-space: pre; opacity: 1;" transform="translate(200.64,0)">0</text></g><g class="xtick"><text text-anchor="middle" x="0" y="459" style="font-family: 'Times New Roman'; font-size: 20px; fill: rgb(0, 0, 0); fill-opacity: 1; white-space: pre; opacity: 1;" transform="translate(299.97,0)">2</text></g><g class="xtick"><text text-anchor="middle" x="0" y="459" style="font-family: 'Times New Roman'; font-size: 20px; fill: rgb(0, 0, 0); fill-opacity: 1; white-space: pre; opacity: 1;" transform="translate(399.3,0)">4</text></g><g class="xtick"><text text-anchor="middle" x="0" y="459" style="font-family: 'Times New Roman'; font-size: 20px; fill: rgb(0, 0, 0); fill-opacity: 1; white-space: pre; opacity: 1;" transform="translate(498.63,0)">6</text></g><g class="xtick"><text text-anchor="middle" x="0" y="459" style="font-family: 'Times New Roman'; font-size: 20px; fill: rgb(0, 0, 0); fill-opacity: 1; white-space: pre; opacity: 1;" transform="translate(597.96,0)">8</text></g></g><g class="yaxislayer-above"><g class="ytick"><text text-anchor="end" x="83" y="7" transform="translate(0,437)" style="font-family: 'Times New Roman'; font-size: 20px; fill: rgb(0, 0, 0); fill-opacity: 1; white-space: pre; opacity: 1;">−0.4</text></g><g class="ytick"><text text-anchor="end" x="83" y="7" style="font-family: 'Times New Roman'; font-size: 20px; fill: rgb(0, 0, 0); fill-opacity: 1; white-space: pre; opacity: 1;" transform="translate(0,387.05)">−0.35</text></g><g class="ytick"><text text-anchor="end" x="83" y="7" style="font-family: 'Times New Roman'; font-size: 20px; fill: rgb(0, 0, 0); fill-opacity: 1; white-space: pre; opacity: 1;" transform="translate(0,337.09)">−0.3</text></g><g class="ytick"><text text-anchor="end" x="83" y="7" style="font-family: 'Times New Roman'; font-size: 20px; fill: rgb(0, 0, 0); fill-opacity: 1; white-space: pre; opacity: 1;" transform="translate(0,287.13)">−0.25</text></g><g class="ytick"><text text-anchor="end" x="83" y="7" style="font-family: 'Times New Roman'; font-size: 20px; fill: rgb(0, 0, 0); fill-opacity: 1; white-space: pre; opacity: 1;" transform="translate(0,237.17)">−0.2</text></g><g class="ytick"><text text-anchor="end" x="83" y="7" style="font-family: 'Times New Roman'; font-size: 20px; fill: rgb(0, 0, 0); fill-opacity: 1; white-space: pre; opacity: 1;" transform="translate(0,187.21)">−0.15</text></g><g class="ytick"><text text-anchor="end" x="83" y="7" style="font-family: 'Times New Roman'; font-size: 20px; fill: rgb(0, 0, 0); fill-opacity: 1; white-space: pre; opacity: 1;" transform="translate(0,137.26)">−0.1</text></g><g class="ytick"><text text-anchor="end" x="83" y="7" style="font-family: 'Times New Roman'; font-size: 20px; fill: rgb(0, 0, 0); fill-opacity: 1; white-space: pre; opacity: 1;" transform="translate(0,87.3)">−0.05</text></g><g class="ytick"><text text-anchor="end" x="83" y="7" style="font-family: 'Times New Roman'; font-size: 20px; fill: rgb(0, 0, 0); fill-opacity: 1; white-space: pre; opacity: 1;" transform="translate(0,37.34)">0</text></g></g><g class="overaxes-above"/></g></g><g class="polarlayer"/><g class="smithlayer"/><g class="ternarylayer"/><g class="geolayer"/><g class="funnelarealayer"/><g class="pielayer"/><g class="iciclelayer"/><g class="treemaplayer"/><g class="sunburstlayer"/><g class="glimages"/><defs id="topdefs-7940ae"><g class="clips"/></defs><g class="layer-above"><g class="imagelayer"/><g class="shapelayer"/></g><g class="infolayer"><g class="g-gtitle"/><g class="g-xtitle" transform="translate(0,-0.48750000000001137)"><text class="xtitle" x="384.5" y="495.3" text-anchor="middle" style="font-family: 'Times New Roman'; font-size: 24px; fill: rgb(0, 0, 0); opacity: 1; font-weight: normal; white-space: pre;">Bond/IOU Holdings</text></g><g class="g-ytitle" transform="translate(16.5810546875,0)"><text class="ytitle" transform="rotate(-90,4.918750000000003,221.5)" x="4.918750000000003" y="221.5" text-anchor="middle" style="font-family: 'Times New Roman'; font-size: 24px; fill: rgb(0, 0, 0); opacity: 1; font-weight: normal; white-space: pre;">Assets</text></g></g></svg>