<svg class="main-svg" xmlns="http://www.w3.org/2000/svg" xmlns:xlink="http://www.w3.org/1999/xlink" width="700" height="500" style="" viewBox="0 0 700 500"><rect x="0" y="0" width="700" height="500" style="fill: rgb(255, 255, 255); fill-opacity: 1;"/><defs id="defs-68a69c"><g class="clips"><clipPath id="clip68a69cxyplot" class="plotclip"><rect width="611" height="433"/></clipPath><clipPath class="axesclip" id="clip68a69cx"><rect x="74" y="0" width="611" height="500"/></clipPath><clipPath class="axesclip" id="clip68a69cy"><rect x="0" y="5" width="700" height="433"/></clipPath><clipPath class="axesclip" id="clip68a69cxy"><rect x="74" y="5" width="611" height="433"/></clipPath></g><g class="gradients"/><g class="patterns"/></defs><g class="bglayer"><rect class="bg" x="74" y="5" width="611" height="433" style="fill: rgb(245, 245, 245); fill-opacity: 1; stroke-width: 0;"/></g><g class="layer-below"><g class="imagelayer"/><g class="shapelayer"/></g><g class="cartesianlayer"><g class="subplot xy"><g class="layer-subplot"><g class="shapelayer"/><g class="imagelayer"/></g><g class="minor-gridlayer"><g class="x"/><g class="y"/></g><g class="gridlayer"><g class="x"><path class="xgrid crisp" transform="translate(189.22,0)" d="M0,5v433" style="stroke: rgb(255, 255, 255); stroke-opacity: 1; stroke-width: 1px;"/><path class="xgrid crisp" transform="translate(354.53,0)" d="M0,5v433" style="stroke: rgb(255, 255, 255); stroke-opacity: 1; stroke-width: 1px;"/><path class="xgrid crisp" transform="translate(519.85,0)" d="M0,5v433" style="stroke: rgb(255, 255, 255); stroke-opacity: 1; stroke-width: 1px;"/></g><g class="y"><path class="ygrid crisp" transform="translate(0,416.84)" d="M74,0h611" style="stroke: rgb(255, 255, 255); stroke-opacity: 1; stroke-width: 1px;"/><path class="ygrid crisp" transform="translate(0,321.8)" d="M74,0h611" style="stroke: rgb(255, 255, 255); stroke-opacity: 1; stroke-width: 1px;"/><path class="ygrid crisp" transform="translate(0,131.7)" d="M74,0h611" style="stroke: rgb(255, 255, 255); stroke-opacity: 1; stroke-width: 1px;"/><path class="ygrid crisp" transform="translate(0,36.66)" d="M74,0h611" style="stroke: rgb(255, 255, 255); stroke-opacity: 1; stroke-width: 1px;"/></g></g><g class="zerolinelayer"><path class="yzl zl crisp" transform="translate(0,226.75)" d="M74,0h611" style="stroke: rgb(255, 255, 255); stroke-opacity: 1; stroke-width: 2px;"/></g><path class="xlines-below"/><path class="ylines-below"/><g class="overlines-below"/><g class="xaxislayer-below"/><g class="yaxislayer-below"/><g class="overaxes-below"/><g class="plot" transform="translate(74,5)" clip-path="url(#clip68a69cxyplot)"><g class="scatterlayer mlayer"><g class="trace scatter trace6eaede" style="stroke-miterlimit: 2; opacity: 1;"><g class="fills"/><g class="errorbars"/><g class="lines"><path class="js-line" d="M0.1,39.67L0.13,25.24L0.24,39.7L0.94,36.08L1.1,40.74L1.27,37.63L1.48,43.72L1.72,48.1L2,47.53L2.33,50.78L3.66,71.32L4.25,68.24L5.74,84.11L6.04,80.51L6.67,82.04L7.76,91.62L8.96,206.92L9.01,229.63L9.2,113.35L10.47,122.47L12.16,117.3L12.47,203.76L14.13,125.37L15.85,139.35L16.6,190.33L19.04,195.28L19.34,142.69L22.1,162.17L22.94,138.92L23.11,187.51L25.65,204.63L26.66,188.59L28.66,160.06L29.75,198.03L30.5,197.78L33.41,213.77L34.49,180.67L37.48,216.71L38.57,161.62L39.97,239.75L42.8,173.81L43.93,246.45L46.3,236.33L46.49,173.9L47.17,218.03L48.68,243.6L51.69,174.19L52.17,247.33L53.55,276.82L53.6,256.75L54.74,244.87L55.76,191.96L56.35,221.3L56.63,258.79L57.39,256.73L58.03,258.36L59.07,257.19L59.48,149.01L60.13,259.26L60.4,209.46L60.62,179.26L60.81,151.56L60.98,257.76L61.12,257.81" style="vector-effect: non-scaling-stroke; fill: none; stroke: rgb(0, 0, 0); stroke-opacity: 1; stroke-width: 0px; opacity: 1;"/><path class="js-line" d="M62,243.4L66.14,229.79L71.27,233.46L99.59,246.65L105.82,248.28L125.76,253.52L132.85,256.12L140.17,259.36L147.73,260.11L155.54,261.52L163.6,265.04L171.93,266L180.53,270.17L189.41,269.78L198.59,271.66L227.95,280.3L238.39,280.66L260.3,287.2L271.79,288.12L308.59,297.31L321.66,299.22L335.17,303.19L349.12,306.14L378.4,312.53L393.76,317.07L409.63,320.51L426.02,325.44L460.42,336.33L478.47,341.45L516.37,356.46L536.25,364.66L556.78,374.18L577.99,385.5L599.89,398.29L622.51,419.95L645.87,436.51L670,465.5" style="vector-effect: non-scaling-stroke; fill: none; stroke: rgb(0, 0, 0); stroke-opacity: 1; stroke-width: 0px; opacity: 1;"/><path class="js-line" d="M0.09,35.05L0.26,22.31L1,36L1.16,33.25L2.71,62.44L2.87,57.17L3.34,63.02L3.88,60.3L4.51,66.85L5.24,74.32L5.5,71.14L6.09,72.5L7.07,80.96L8.17,182.85L8.22,202.92L8.39,100.16L9.55,108.22L11.09,103.65L11.37,180.06L12.88,110.79L14.45,123.14L15.14,168.19L17.37,172.56L17.64,126.09L20.16,143.3L20.92,122.76L21.07,165.7L23.39,180.83L24.31,166.65L26.14,141.44L27.13,174.99L27.82,174.77L30.47,188.91L31.45,159.66L34.18,191.5L35.17,142.82L36.45,211.86L39.03,153.59L40.07,217.78L42.22,208.84L42.39,153.67L43.02,192.67L44.39,215.26L47.14,153.93L47.57,218.56L48.83,244.62L48.88,226.88L49.92,216.38L50.85,169.63L51.39,195.56L51.65,228.68L52.33,226.87L52.92,228.3L53.87,227.27L54.24,131.68L54.84,229.1L55.28,158.41L55.46,133.93L55.74,227.82" style="vector-effect: non-scaling-stroke; fill: none; stroke: rgb(31, 119, 180); stroke-opacity: 1; stroke-width: 4px; opacity: 1;"/><path class="js-line" d="M56.54,215.08L60.31,203.06L65,206.3L90.82,217.95L96.5,219.4L114.69,224.02L121.15,226.33L127.83,229.19L134.72,229.85L141.84,231.1L149.2,234.21L156.79,235.05L164.63,238.74L172.73,238.4L181.1,240.06L207.88,247.7L217.4,248.01L237.37,253.79L247.86,254.6L281.41,262.72L293.34,264.42L318.37,270.53L331.51,273.2L373.56,283.22L388.5,287.59L419.88,297.2L436.34,301.73L470.9,314.99L489.03,322.24L507.75,330.65L527.09,340.65L547.07,351.95L567.7,371.1L589,385.73L611,411.35" style="vector-effect: non-scaling-stroke; fill: none; stroke: rgb(31, 119, 180); stroke-opacity: 1; stroke-width: 4px; opacity: 1;"/></g><g class="points"/><g class="text"/></g></g></g><g class="overplot"/><path class="xlines-above crisp" d="M0,0" style="fill: none;"/><path class="ylines-above crisp" d="M0,0" style="fill: none;"/><g class="overlines-above"/><g class="xaxislayer-above"><g class="xtick"><text text-anchor="middle" x="0" y="459" transform="translate(189.22,0)" style="font-family: 'Times New Roman'; font-size: 20px; fill: rgb(0, 0, 0); fill-opacity: 1; white-space: pre; opacity: 1;">−2</text></g><g class="xtick"><text text-anchor="middle" x="0" y="459" style="font-family: 'Times New Roman'; font-size: 20px; fill: rgb(0, 0, 0); fill-opacity: 1; white-space: pre; opacity: 1;" transform="translate(354.53,0)">−1.5</text></g><g class="xtick"><text text-anchor="middle" x="0" y="459" style="font-family: 'Times New Roman'; font-size: 20px; fill: rgb(0, 0, 0); fill-opacity: 1; white-space: pre; opacity: 1;" transform="translate(519.85,0)">−1</text></g></g><g class="yaxislayer-above"><g class="ytick"><text text-anchor="end" x="73" y="7" transform="translate(0,416.84)" style="font-family: 'Times New Roman'; font-size: 20px; fill: rgb(0, 0, 0); fill-opacity: 1; white-space: pre; opacity: 1;">−1</text></g><g class="ytick"><text text-anchor="end" x="73" y="7" style="font-family: 'Times New Roman'; font-size: 20px; fill: rgb(0, 0, 0); fill-opacity: 1; white-space: pre; opacity: 1;" transform="translate(0,321.8)">−0.5</text></g><g class="ytick"><text text-anchor="end" x="73" y="7" style="font-family: 'Times New Roman'; font-size: 20px; fill: rgb(0, 0, 0); fill-opacity: 1; white-space: pre; opacity: 1;" transform="translate(0,226.75)">0</text></g><g class="ytick"><text text-anchor="end" x="73" y="7" style="font-family: 'Times New Roman'; font-size: 20px; fill: rgb(0, 0, 0); fill-opacity: 1; white-space: pre; opacity: 1;" transform="translate(0,131.7)">0.5</text></g><g class="ytick"><text text-anchor="end" x="73" y="7" style="font-family: 'Times New Roman'; font-size: 20px; fill: rgb(0, 0, 0); fill-opacity: 1; white-space: pre; opacity: 1;" transform="translate(0,36.66)">1</text></g></g><g class="overaxes-above"/></g></g><g class="polarlayer"/><g class="smithlayer"/><g class="ternarylayer"/><g class="geolayer"/><g class="funnelarealayer"/><g class="pielayer"/><g class="iciclelayer"/><g class="treemaplayer"/><g class="sunburstlayer"/><g class="glimages"/><defs id="topdefs-68a69c"><g class="clips"/></defs><g class="layer-above"><g class="imagelayer"/><g class="shapelayer"><path data-index="0" fill-rule="evenodd" d="M130.54,438L130.54,5" clip-path="url(#clip68a69cx)" style="opacity: 1; stroke: rgb(255, 0, 0); stroke-opacity: 1; fill: rgb(0, 0, 0); fill-opacity: 0; stroke-dasharray: 9px, 9px; stroke-width: 3px;"/></g></g><g class="infolayer"><g class="g-gtitle"/><g class="g-xtitle" transform="translate(0,-0.48750000000001137)"><text class="xtitle" x="379.5" y="495.3" text-anchor="middle" style="font-family: 'Times New Roman'; font-size: 24px; fill: rgb(0, 0, 0); opacity: 1; font-weight: normal; white-space: pre;">Bond/IOU Holdings</text></g><g class="g-ytitle" transform="translate(16.5810546875,0)"><text class="ytitle" transform="rotate(-90,4.918750000000003,221.5)" x="4.918750000000003" y="221.5" text-anchor="middle" style="font-family: 'Times New Roman'; font-size: 24px; fill: rgb(0, 0, 0); opacity: 1; font-weight: normal; white-space: pre;">Percent Deviation</text></g></g></svg>