<svg class="main-svg" xmlns="http://www.w3.org/2000/svg" xmlns:xlink="http://www.w3.org/1999/xlink" width="700" height="500" style="" viewBox="0 0 700 500"><rect x="0" y="0" width="700" height="500" style="fill: rgb(255, 255, 255); fill-opacity: 1;"/><defs id="defs-049967"><g class="clips"><clipPath id="clip049967xyplot" class="plotclip"><rect width="611" height="433"/></clipPath><clipPath class="axesclip" id="clip049967x"><rect x="74" y="0" width="611" height="500"/></clipPath><clipPath class="axesclip" id="clip049967y"><rect x="0" y="5" width="700" height="433"/></clipPath><clipPath class="axesclip" id="clip049967xy"><rect x="74" y="5" width="611" height="433"/></clipPath></g><g class="gradients"/><g class="patterns"/></defs><g class="bglayer"><rect class="bg" x="74" y="5" width="611" height="433" style="fill: rgb(245, 245, 245); fill-opacity: 1; stroke-width: 0;"/></g><g class="layer-below"><g class="imagelayer"/><g class="shapelayer"/></g><g class="cartesianlayer"><g class="subplot xy"><g class="layer-subplot"><g class="shapelayer"/><g class="imagelayer"/></g><g class="minor-gridlayer"><g class="x"/><g class="y"/></g><g class="gridlayer"><g class="x"><path class="xgrid crisp" transform="translate(227.52,0)" d="M0,5v433" style="stroke: rgb(255, 255, 255); stroke-opacity: 1; stroke-width: 1px;"/><path class="xgrid crisp" transform="translate(381.04,0)" d="M0,5v433" style="stroke: rgb(255, 255, 255); stroke-opacity: 1; stroke-width: 1px;"/><path class="xgrid crisp" transform="translate(534.55,0)" d="M0,5v433" style="stroke: rgb(255, 255, 255); stroke-opacity: 1; stroke-width: 1px;"/></g><g class="y"><path class="ygrid crisp" transform="translate(0,399.9)" d="M74,0h611" style="stroke: rgb(255, 255, 255); stroke-opacity: 1; stroke-width: 1px;"/><path class="ygrid crisp" transform="translate(0,333.98)" d="M74,0h611" style="stroke: rgb(255, 255, 255); stroke-opacity: 1; stroke-width: 1px;"/><path class="ygrid crisp" transform="translate(0,268.06)" d="M74,0h611" style="stroke: rgb(255, 255, 255); stroke-opacity: 1; stroke-width: 1px;"/><path class="ygrid crisp" transform="translate(0,202.14)" d="M74,0h611" style="stroke: rgb(255, 255, 255); stroke-opacity: 1; stroke-width: 1px;"/><path class="ygrid crisp" transform="translate(0,136.23)" d="M74,0h611" style="stroke: rgb(255, 255, 255); stroke-opacity: 1; stroke-width: 1px;"/></g></g><g class="zerolinelayer"><path class="xzl zl crisp" transform="translate(74,0)" d="M0,5v433" style="stroke: rgb(255, 255, 255); stroke-opacity: 1; stroke-width: 2px;"/><path class="yzl zl crisp" transform="translate(0,70.31)" d="M74,0h611" style="stroke: rgb(255, 255, 255); stroke-opacity: 1; stroke-width: 2px;"/></g><path class="xlines-below"/><path class="ylines-below"/><g class="overlines-below"/><g class="xaxislayer-below"/><g class="yaxislayer-below"/><g class="overaxes-below"/><g class="plot" transform="translate(74,5)" clip-path="url(#clip049967xyplot)"><g class="scatterlayer mlayer"><g class="trace scatter trace95cffe" style="stroke-miterlimit: 2; opacity: 1;"><g class="fills"/><g class="errorbars"/><g class="lines"><path class="js-line" d="M0,65.31L3.07,411.35L6.14,328.4L9.21,264.77L12.28,227.81L15.35,207.93L18.42,195.89L27.63,167.78L30.7,159.36L39.91,139.64L42.98,134.37L49.13,125.63L52.2,121.95L61.41,112.88L64.48,110.46L73.69,104.49L76.76,102.9L89.04,97.56L92.11,96.53L107.46,92.49L110.53,91.85L128.95,88.97L132.03,88.6L159.66,86.26L162.73,86.07L205.71,84.38L208.78,84.3L285.54,83.27L288.61,83.25L454.41,82.9L457.48,82.9L611,82.89" style="vector-effect: non-scaling-stroke; fill: none; stroke: rgb(31, 119, 180); stroke-opacity: 1; stroke-width: 3px; opacity: 1;"/></g><g class="points"/><g class="text"/></g><g class="trace scatter trace337b8b" style="stroke-miterlimit: 2; opacity: 1;"><g class="fills"/><g class="errorbars"/><g class="lines"><path class="js-line" d="M0,65.31L3.07,241.93L6.14,185.97L9.21,147.47L12.28,128.79L15.35,121.52L18.42,118.62L27.63,110.68L30.7,107.69L39.91,100.63L42.98,98.68L52.2,94.05L55.27,92.78L67.55,88.73L70.62,87.94L85.97,84.83L89.04,84.35L110.53,81.91L113.6,81.66L147.38,79.81L150.45,79.71L202.64,78.59L205.71,78.55L340.81,77.94L343.88,77.94L589.51,77.88L592.58,77.88L611,77.88" style="vector-effect: non-scaling-stroke; fill: none; stroke: rgb(255, 127, 14); stroke-opacity: 1; stroke-width: 3px; opacity: 1;"/></g><g class="points"/><g class="text"/></g><g class="trace scatter tracec4797d" style="stroke-miterlimit: 2; opacity: 1;"><g class="fills"/><g class="errorbars"/><g class="lines"><path class="js-line" d="M0,65.31L3.07,101.91L6.14,56.02L9.21,29.49L12.28,21.65L15.35,23.35L18.42,27.77L24.56,34.42L27.63,36.37L39.91,41.45L42.98,42.42L58.34,46.24L61.41,46.8L79.83,49.38L82.9,49.68L113.6,51.77L116.67,51.91L162.73,53.13L165.8,53.18L248.7,53.8L251.77,53.81L611,53.96" style="vector-effect: non-scaling-stroke; fill: none; stroke: rgb(44, 160, 44); stroke-opacity: 1; stroke-width: 3px; opacity: 1;"/></g><g class="points"/><g class="text"/></g></g></g><g class="overplot"/><path class="xlines-above crisp" d="M0,0" style="fill: none;"/><path class="ylines-above crisp" d="M0,0" style="fill: none;"/><g class="overlines-above"/><g class="xaxislayer-above"><g class="xtick"><text text-anchor="middle" x="0" y="459" transform="translate(74,0)" style="font-family: 'Times New Roman'; font-size: 20px; fill: rgb(0, 0, 0); fill-opacity: 1; white-space: pre; opacity: 1;">0</text></g><g class="xtick"><text text-anchor="middle" x="0" y="459" style="font-family: 'Times New Roman'; font-size: 20px; fill: rgb(0, 0, 0); fill-opacity: 1; white-space: pre; opacity: 1;" transform="translate(227.52,0)">50</text></g><g class="xtick"><text text-anchor="middle" x="0" y="459" style="font-family: 'Times New Roman'; font-size: 20px; fill: rgb(0, 0, 0); fill-opacity: 1; white-space: pre; opacity: 1;" transform="translate(381.04,0)">100</text></g><g class="xtick"><text text-anchor="middle" x="0" y="459" style="font-family: 'Times New Roman'; font-size: 20px; fill: rgb(0, 0, 0); fill-opacity: 1; white-space: pre; opacity: 1;" transform="translate(534.55,0)">150</text></g></g><g class="yaxislayer-above"><g class="ytick"><text text-anchor="end" x="73" y="7" transform="translate(0,399.9)" style="font-family: 'Times New Roman'; font-size: 20px; fill: rgb(0, 0, 0); fill-opacity: 1; white-space: pre; opacity: 1;">−2.5</text></g><g class="ytick"><text text-anchor="end" x="73" y="7" style="font-family: 'Times New Roman'; font-size: 20px; fill: rgb(0, 0, 0); fill-opacity: 1; white-space: pre; opacity: 1;" transform="translate(0,333.98)">−2</text></g><g class="ytick"><text text-anchor="end" x="73" y="7" style="font-family: 'Times New Roman'; font-size: 20px; fill: rgb(0, 0, 0); fill-opacity: 1; white-space: pre; opacity: 1;" transform="translate(0,268.06)">−1.5</text></g><g class="ytick"><text text-anchor="end" x="73" y="7" style="font-family: 'Times New Roman'; font-size: 20px; fill: rgb(0, 0, 0); fill-opacity: 1; white-space: pre; opacity: 1;" transform="translate(0,202.14)">−1</text></g><g class="ytick"><text text-anchor="end" x="73" y="7" style="font-family: 'Times New Roman'; font-size: 20px; fill: rgb(0, 0, 0); fill-opacity: 1; white-space: pre; opacity: 1;" transform="translate(0,136.23)">−0.5</text></g><g class="ytick"><text text-anchor="end" x="73" y="7" style="font-family: 'Times New Roman'; font-size: 20px; fill: rgb(0, 0, 0); fill-opacity: 1; white-space: pre; opacity: 1;" transform="translate(0,70.31)">0</text></g></g><g class="overaxes-above"/></g></g><g class="polarlayer"/><g class="smithlayer"/><g class="ternarylayer"/><g class="geolayer"/><g class="funnelarealayer"/><g class="pielayer"/><g class="iciclelayer"/><g class="treemaplayer"/><g class="sunburstlayer"/><g class="glimages"/><defs id="topdefs-049967"><g class="clips"/><clipPath id="legend049967"><rect width="190" height="129" x="0" y="0"/></clipPath></defs><g class="layer-above"><g class="imagelayer"/><g class="shapelayer"/></g><g class="infolayer"><g class="legend" pointer-events="all" transform="translate(482.78,300.34)"><rect class="bg" shape-rendering="crispEdges" width="190" height="129" x="0" y="0" style="stroke: rgb(68, 68, 68); stroke-opacity: 1; fill: rgb(255, 255, 255); fill-opacity: 1; stroke-width: 0px;"/><g class="scrollbox" transform="" clip-path="url(#legend049967)"><g class="groups" transform=""><g class="traces" transform="translate(0,24.7)" style="opacity: 1;"><text class="legendtext" text-anchor="start" x="40" y="10.92" style="font-family: 'Times New Roman'; font-size: 28px; fill: rgb(0, 0, 0); fill-opacity: 1; white-space: pre;">Bottom-25%</text><g class="layers" style="opacity: 1;"><g class="legendfill"/><g class="legendlines"><path class="js-line" d="M5,0h30" style="fill: none; stroke: rgb(31, 119, 180); stroke-opacity: 1; stroke-width: 3px;"/></g><g class="legendsymbols"><g class="legendpoints"/></g></g><rect class="legendtoggle" x="0" y="-19.7" width="184.671875" height="39.4" style="fill: rgb(0, 0, 0); fill-opacity: 0;"/></g></g><g class="groups" transform=""><g class="traces" transform="translate(0,64.1)" style="opacity: 1;"><text class="legendtext" text-anchor="start" x="40" y="10.92" style="font-family: 'Times New Roman'; font-size: 28px; fill: rgb(0, 0, 0); fill-opacity: 1; white-space: pre;">Bottom-50%</text><g class="layers" style="opacity: 1;"><g class="legendfill"/><g class="legendlines"><path class="js-line" d="M5,0h30" style="fill: none; stroke: rgb(255, 127, 14); stroke-opacity: 1; stroke-width: 3px;"/></g><g class="legendsymbols"><g class="legendpoints"/></g></g><rect class="legendtoggle" x="0" y="-19.7" width="184.671875" height="39.4" style="fill: rgb(0, 0, 0); fill-opacity: 0;"/></g></g><g class="groups" transform=""><g class="traces" transform="translate(0,103.5)" style="opacity: 1;"><text class="legendtext" text-anchor="start" x="40" y="10.92" style="font-family: 'Times New Roman'; font-size: 28px; fill: rgb(0, 0, 0); fill-opacity: 1; white-space: pre;">Top-25%</text><g class="layers" style="opacity: 1;"><g class="legendfill"/><g class="legendlines"><path class="js-line" d="M5,0h30" style="fill: none; stroke: rgb(44, 160, 44); stroke-opacity: 1; stroke-width: 3px;"/></g><g class="legendsymbols"><g class="legendpoints"/></g></g><rect class="legendtoggle" x="0" y="-19.7" width="184.671875" height="39.4" style="fill: rgb(0, 0, 0); fill-opacity: 0;"/></g></g></g><rect class="scrollbar" rx="20" ry="3" width="0" height="0" x="0" y="0" style="fill: rgb(128, 139, 164); fill-opacity: 1;"/></g><g class="g-gtitle"/><g class="g-xtitle" transform="translate(0,-0.30000000000001137)"><text class="xtitle" x="379.5" y="495.3" text-anchor="middle" style="font-family: 'Times New Roman'; font-size: 24px; fill: rgb(0, 0, 0); opacity: 1; font-weight: normal; white-space: pre;">Quarters</text></g><g class="g-ytitle" transform="translate(16.5810546875,0)"><text class="ytitle" transform="rotate(-90,4.918750000000003,221.5)" x="4.918750000000003" y="221.5" text-anchor="middle" style="font-family: 'Times New Roman'; font-size: 24px; fill: rgb(0, 0, 0); opacity: 1; font-weight: normal; white-space: pre;">Percent Deviation</text></g></g></svg>