<svg class="main-svg" xmlns="http://www.w3.org/2000/svg" xmlns:xlink="http://www.w3.org/1999/xlink" width="700" height="500" style="" viewBox="0 0 700 500"><rect x="0" y="0" width="700" height="500" style="fill: rgb(255, 255, 255); fill-opacity: 1;"/><defs id="defs-dc8d55"><g class="clips"><clipPath id="clipdc8d55xyplot" class="plotclip"><rect width="622" height="464"/></clipPath><clipPath class="axesclip" id="clipdc8d55x"><rect x="63" y="0" width="622" height="500"/></clipPath><clipPath class="axesclip" id="clipdc8d55y"><rect x="0" y="5" width="700" height="464"/></clipPath><clipPath class="axesclip" id="clipdc8d55xy"><rect x="63" y="5" width="622" height="464"/></clipPath></g><g class="gradients"/><g class="patterns"/></defs><g class="bglayer"><rect class="bg" x="63" y="5" width="622" height="464" style="fill: rgb(245, 245, 245); fill-opacity: 1; stroke-width: 0;"/></g><g class="layer-below"><g class="imagelayer"/><g class="shapelayer"/></g><g class="cartesianlayer"><g class="subplot xy"><g class="layer-subplot"><g class="shapelayer"/><g class="imagelayer"/></g><g class="minor-gridlayer"><g class="x"/><g class="y"/></g><g class="gridlayer"><g class="x"><path class="xgrid crisp" transform="translate(135.03,0)" d="M0,5v464" style="stroke: rgb(255, 255, 255); stroke-opacity: 1; stroke-width: 1px;"/><path class="xgrid crisp" transform="translate(222.34,0)" d="M0,5v464" style="stroke: rgb(255, 255, 255); stroke-opacity: 1; stroke-width: 1px;"/><path class="xgrid crisp" transform="translate(309.63,0)" d="M0,5v464" style="stroke: rgb(255, 255, 255); stroke-opacity: 1; stroke-width: 1px;"/><path class="xgrid crisp" transform="translate(396.93,0)" d="M0,5v464" style="stroke: rgb(255, 255, 255); stroke-opacity: 1; stroke-width: 1px;"/><path class="xgrid crisp" transform="translate(484.22,0)" d="M0,5v464" style="stroke: rgb(255, 255, 255); stroke-opacity: 1; stroke-width: 1px;"/><path class="xgrid crisp" transform="translate(571.52,0)" d="M0,5v464" style="stroke: rgb(255, 255, 255); stroke-opacity: 1; stroke-width: 1px;"/><path class="xgrid crisp" transform="translate(658.81,0)" d="M0,5v464" style="stroke: rgb(255, 255, 255); stroke-opacity: 1; stroke-width: 1px;"/></g><g class="y"><path class="ygrid crisp" transform="translate(0,444.75)" d="M63,0h622" style="stroke: rgb(255, 255, 255); stroke-opacity: 1; stroke-width: 1px;"/><path class="ygrid crisp" transform="translate(0,395.07)" d="M63,0h622" style="stroke: rgb(255, 255, 255); stroke-opacity: 1; stroke-width: 1px;"/><path class="ygrid crisp" transform="translate(0,345.39)" d="M63,0h622" style="stroke: rgb(255, 255, 255); stroke-opacity: 1; stroke-width: 1px;"/><path class="ygrid crisp" transform="translate(0,295.7)" d="M63,0h622" style="stroke: rgb(255, 255, 255); stroke-opacity: 1; stroke-width: 1px;"/><path class="ygrid crisp" transform="translate(0,246.02)" d="M63,0h622" style="stroke: rgb(255, 255, 255); stroke-opacity: 1; stroke-width: 1px;"/><path class="ygrid crisp" transform="translate(0,196.34)" d="M63,0h622" style="stroke: rgb(255, 255, 255); stroke-opacity: 1; stroke-width: 1px;"/><path class="ygrid crisp" transform="translate(0,146.66)" d="M63,0h622" style="stroke: rgb(255, 255, 255); stroke-opacity: 1; stroke-width: 1px;"/><path class="ygrid crisp" transform="translate(0,96.98)" d="M63,0h622" style="stroke: rgb(255, 255, 255); stroke-opacity: 1; stroke-width: 1px;"/><path class="ygrid crisp" transform="translate(0,47.3)" d="M63,0h622" style="stroke: rgb(255, 255, 255); stroke-opacity: 1; stroke-width: 1px;"/></g></g><g class="zerolinelayer"/><path class="xlines-below"/><path class="ylines-below"/><g class="overlines-below"/><g class="xaxislayer-below"/><g class="yaxislayer-below"/><g class="overaxes-below"/><g class="plot" transform="translate(63,5)" clip-path="url(#clipdc8d55xyplot)"><g class="scatterlayer mlayer"><g class="trace scatter traceba43c7" style="stroke-miterlimit: 2; opacity: 1;"><g class="fills"/><g class="errorbars"/><g class="lines"><path class="js-line" d="M0,277.14L2.2,278.58L4.37,278.42L6.55,281.01L8.75,286.94L13.1,298.58L15.27,289.66L17.47,282.1L19.67,279.89L21.82,280.73L24,282.65L26.19,284.99L28.39,297.38L32.72,308.82L34.92,309.84L37.12,312.54L39.29,319.76L43.67,329.19L45.86,332.25L50.19,341.18L52.39,334.62L54.59,327.46L56.74,326.96L58.91,338.29L61.11,341.89L63.31,345.25L65.46,350.72L69.84,350.33L72.03,354.48L76.38,350.67L78.58,348L80.78,349.93L82.93,353.69L87.31,358.01L89.51,361.67L91.66,361.71L93.83,363.46L96.03,361.27L98.23,364.15L100.38,366.21L102.56,370.04L104.75,372.01L106.95,375.45L111.3,378.12L113.5,377.57L122.23,393.04L124.42,397.85L128.75,403.02L130.95,401.45L133.15,400.67L135.3,403.08L137.47,404.54L139.67,404.68L141.87,405.74L144.05,409.58L146.22,408.77L148.42,410.92L154.94,421.32L157.14,420.08L159.34,419.78L161.49,422.02L163.67,419.73L165.87,415.44L168.07,415.9L170.22,418.54L174.59,413.57L176.79,415.65L178.96,418.59L181.14,419.37L183.34,420.1L185.54,423.05L189.86,427.43L192.06,428.23L194.26,428.71L196.41,432.26L198.59,433.14L200.78,432.6L205.13,426.43L207.31,426.57L211.71,422.35L213.88,421.15L216.06,418.6L218.26,417.31L224.78,422.52L226.98,422.16L229.18,421.41L231.33,426.9L233.5,427.1L235.7,429.26L240.05,430.73L242.23,432.36L246.63,437.68L248.8,429.49L250.97,431.75L253.17,436.28L257.52,437.43L259.7,440.8L261.9,433.96L264.1,430.61L266.25,429.13L268.42,422.31L270.62,413.38L272.82,410.6L274.97,408.3L277.15,408.6L281.54,407.11L283.72,410.15L285.89,405.5L288.09,396.85L290.29,394.36L292.44,388.43L294.62,386.09L296.82,378.96L299.01,369.19L301.17,364.25L305.54,356.29L307.74,354.68L309.89,359.89L312.06,363.05L314.26,360.96L316.46,355.99L318.64,359.94L320.81,360.57L323.01,358.81L325.21,359.93L331.73,347.13L333.93,350.32L336.08,348.22L338.26,343.25L342.66,325.4L344.81,326.17L346.98,320.21L349.18,309.42L351.38,309.72L353.55,307.89L355.73,301.8L357.93,302.24L360.13,296.35L362.28,292.88L364.45,288.07L366.65,289.51L368.85,293.92L371,303.74L373.18,304.22L375.37,307.71L377.57,303.06L379.72,296.19L384.1,293.08L386.3,295.56L388.47,301.61L390.65,301.55L392.85,298.06L395.04,301.53L397.2,305.6L399.37,304.5L401.57,302.24L403.77,301.33L405.92,303.96L408.09,302.85L410.29,303.78L412.49,308.89L416.82,320.84L419.02,325.36L421.22,327.03L423.39,333.6L427.76,332.57L429.96,327.45L432.11,334.11L434.29,327.99L436.49,324.32L438.69,326.84L440.84,326.12L443.01,317.12L445.21,313.72L447.41,311.88L449.56,309.06L451.74,312.57L453.93,312.06L456.13,308.44L458.31,313.5L460.48,310.95L462.68,310.21L464.88,310.41L467.03,308.89L469.21,311.04L473.6,312.64L475.76,315.74L480.13,310.3L482.33,309.82L484.48,312.3L486.65,309.38L488.85,302.96L491.05,291.97L493.23,297.26L495.4,290.26L497.6,259.64L499.8,248.55L504.12,230.32L506.32,226.42L508.52,220.73L510.67,208.54L512.85,196.55L515.05,192.86L519.4,189.77L521.57,175.27L523.77,164.09L525.97,161.6L530.32,150.9L532.52,148.24L536.87,153.57L539.04,167.38L543.44,157.45L545.59,160.6L547.77,162.25L549.97,156.32L552.16,151.54L554.31,161.52L556.49,164.89L558.69,157.81L560.89,143.66L563.06,143.16L565.24,139.37L567.44,147L569.63,153.54L571.79,156.47L573.96,158.8L576.16,157.7L578.36,162.49L580.51,164.26L582.68,164.43L584.88,160.47L587.08,154.6L589.23,153.34L593.61,136.62L595.81,114.82L597.98,23.2L600.16,47.27L602.35,48.06L604.55,63.55L606.7,76.01L608.88,80.3L611.08,87.53L613.28,91.34L615.43,117.28L617.6,128.42L619.8,138.4L622,137.27" style="vector-effect: non-scaling-stroke; fill: none; stroke: rgb(31, 119, 180); stroke-opacity: 1; stroke-width: 3px; opacity: 1;"/></g><g class="points"/><g class="text"/></g></g></g><g class="overplot"/><path class="xlines-above crisp" d="M0,0" style="fill: none;"/><path class="ylines-above crisp" d="M0,0" style="fill: none;"/><g class="overlines-above"/><g class="xaxislayer-above"><g class="xtick"><text text-anchor="middle" x="0" y="490" transform="translate(135.03,0)" style="font-family: 'Times New Roman'; font-size: 20px; fill: rgb(0, 0, 0); fill-opacity: 1; white-space: pre; opacity: 1;">1960</text></g><g class="xtick"><text text-anchor="middle" x="0" y="490" style="font-family: 'Times New Roman'; font-size: 20px; fill: rgb(0, 0, 0); fill-opacity: 1; white-space: pre; opacity: 1;" transform="translate(222.34,0)">1970</text></g><g class="xtick"><text text-anchor="middle" x="0" y="490" style="font-family: 'Times New Roman'; font-size: 20px; fill: rgb(0, 0, 0); fill-opacity: 1; white-space: pre; opacity: 1;" transform="translate(309.63,0)">1980</text></g><g class="xtick"><text text-anchor="middle" x="0" y="490" style="font-family: 'Times New Roman'; font-size: 20px; fill: rgb(0, 0, 0); fill-opacity: 1; white-space: pre; opacity: 1;" transform="translate(396.93,0)">1990</text></g><g class="xtick"><text text-anchor="middle" x="0" y="490" style="font-family: 'Times New Roman'; font-size: 20px; fill: rgb(0, 0, 0); fill-opacity: 1; white-space: pre; opacity: 1;" transform="translate(484.22,0)">2000</text></g><g class="xtick"><text text-anchor="middle" x="0" y="490" style="font-family: 'Times New Roman'; font-size: 20px; fill: rgb(0, 0, 0); fill-opacity: 1; white-space: pre; opacity: 1;" transform="translate(571.52,0)">2010</text></g><g class="xtick"><text text-anchor="middle" x="0" y="490" style="font-family: 'Times New Roman'; font-size: 20px; fill: rgb(0, 0, 0); fill-opacity: 1; white-space: pre; opacity: 1;" transform="translate(658.81,0)">2020</text></g></g><g class="yaxislayer-above"><g class="ytick"><text text-anchor="end" x="62" y="7" transform="translate(0,444.75)" style="font-family: 'Times New Roman'; font-size: 20px; fill: rgb(0, 0, 0); fill-opacity: 1; white-space: pre; opacity: 1;">1</text></g><g class="ytick"><text text-anchor="end" x="62" y="7" style="font-family: 'Times New Roman'; font-size: 20px; fill: rgb(0, 0, 0); fill-opacity: 1; white-space: pre; opacity: 1;" transform="translate(0,395.07)">1.5</text></g><g class="ytick"><text text-anchor="end" x="62" y="7" style="font-family: 'Times New Roman'; font-size: 20px; fill: rgb(0, 0, 0); fill-opacity: 1; white-space: pre; opacity: 1;" transform="translate(0,345.39)">2</text></g><g class="ytick"><text text-anchor="end" x="62" y="7" style="font-family: 'Times New Roman'; font-size: 20px; fill: rgb(0, 0, 0); fill-opacity: 1; white-space: pre; opacity: 1;" transform="translate(0,295.7)">2.5</text></g><g class="ytick"><text text-anchor="end" x="62" y="7" style="font-family: 'Times New Roman'; font-size: 20px; fill: rgb(0, 0, 0); fill-opacity: 1; white-space: pre; opacity: 1;" transform="translate(0,246.02)">3</text></g><g class="ytick"><text text-anchor="end" x="62" y="7" style="font-family: 'Times New Roman'; font-size: 20px; fill: rgb(0, 0, 0); fill-opacity: 1; white-space: pre; opacity: 1;" transform="translate(0,196.34)">3.5</text></g><g class="ytick"><text text-anchor="end" x="62" y="7" style="font-family: 'Times New Roman'; font-size: 20px; fill: rgb(0, 0, 0); fill-opacity: 1; white-space: pre; opacity: 1;" transform="translate(0,146.66)">4</text></g><g class="ytick"><text text-anchor="end" x="62" y="7" style="font-family: 'Times New Roman'; font-size: 20px; fill: rgb(0, 0, 0); fill-opacity: 1; white-space: pre; opacity: 1;" transform="translate(0,96.98)">4.5</text></g><g class="ytick"><text text-anchor="end" x="62" y="7" style="font-family: 'Times New Roman'; font-size: 20px; fill: rgb(0, 0, 0); fill-opacity: 1; white-space: pre; opacity: 1;" transform="translate(0,47.3)">5</text></g></g><g class="overaxes-above"/></g></g><g class="polarlayer"/><g class="smithlayer"/><g class="ternarylayer"/><g class="geolayer"/><g class="funnelarealayer"/><g class="pielayer"/><g class="iciclelayer"/><g class="treemaplayer"/><g class="sunburstlayer"/><g class="glimages"/><defs id="topdefs-dc8d55"><g class="clips"/></defs><g class="layer-above"><g class="imagelayer"/><g class="shapelayer"><path data-index="0" fill-rule="evenodd" d="M63,321.39L685,321.39" clip-path="url(#clipdc8d55y)" style="opacity: 1; stroke: rgb(255, 127, 14); stroke-opacity: 1; fill: rgb(0, 0, 0); fill-opacity: 0; stroke-dasharray: 3px, 3px; stroke-width: 2px;"/></g></g><g class="infolayer"><g class="g-gtitle"/><g class="g-xtitle"/><g class="g-ytitle" transform="translate(16.2998046875,0)"><text class="ytitle" transform="rotate(-90,5.200000000000003,237)" x="5.200000000000003" y="237" text-anchor="middle" style="font-family: 'Times New Roman'; font-size: 24px; fill: rgb(0, 0, 0); opacity: 1; font-weight: normal; white-space: pre;">Quarterly Model Units</text></g><g class="annotation" data-index="0" style="opacity: 1;"><g class="annotation-text-g" transform="rotate(0,665.5,334.89)"><g class="cursor-pointer" transform="translate(646,321)"><rect class="bg" x="0.5" y="0.5" width="38" height="26" style="stroke-width: 1px; stroke: rgb(0, 0, 0); stroke-opacity: 0; fill: rgb(0, 0, 0); fill-opacity: 0;"/><text class="annotation-text" text-anchor="middle" x="19.5" y="20" style="font-family: 'Times New Roman'; font-size: 20px; fill: rgb(0, 0, 0); fill-opacity: 1; white-space: pre;">2.24</text></g></g></g></g></svg>