<svg class="main-svg" xmlns="http://www.w3.org/2000/svg" xmlns:xlink="http://www.w3.org/1999/xlink" width="700" height="500" style="" viewBox="0 0 700 500"><rect x="0" y="0" width="700" height="500" style="fill: rgb(255, 255, 255); fill-opacity: 1;"/><defs id="defs-eb5d3f"><g class="clips"><clipPath id="clipeb5d3fxyplot" class="plotclip"><rect width="611" height="430"/></clipPath><clipPath class="axesclip" id="clipeb5d3fx"><rect x="74" y="0" width="611" height="500"/></clipPath><clipPath class="axesclip" id="clipeb5d3fy"><rect x="0" y="8" width="700" height="430"/></clipPath><clipPath class="axesclip" id="clipeb5d3fxy"><rect x="74" y="8" width="611" height="430"/></clipPath></g><g class="gradients"/><g class="patterns"/></defs><g class="bglayer"><rect class="bg" x="74" y="8" width="611" height="430" style="fill: rgb(245, 245, 245); fill-opacity: 1; stroke-width: 0;"/></g><g class="layer-below"><g class="imagelayer"/><g class="shapelayer"/></g><g class="cartesianlayer"><g class="subplot xy"><g class="layer-subplot"><g class="shapelayer"/><g class="imagelayer"/></g><g class="minor-gridlayer"><g class="x"/><g class="y"/></g><g class="gridlayer"><g class="x"><path class="xgrid crisp" transform="translate(85.86,0)" d="M0,8v430" style="stroke: rgb(255, 255, 255); stroke-opacity: 1; stroke-width: 1px;"/><path class="xgrid crisp" transform="translate(205.73,0)" d="M0,8v430" style="stroke: rgb(255, 255, 255); stroke-opacity: 1; stroke-width: 1px;"/><path class="xgrid crisp" transform="translate(325.6,0)" d="M0,8v430" style="stroke: rgb(255, 255, 255); stroke-opacity: 1; stroke-width: 1px;"/><path class="xgrid crisp" transform="translate(565.35,0)" d="M0,8v430" style="stroke: rgb(255, 255, 255); stroke-opacity: 1; stroke-width: 1px;"/></g><g class="y"><path class="ygrid crisp" transform="translate(0,421.78)" d="M74,0h611" style="stroke: rgb(255, 255, 255); stroke-opacity: 1; stroke-width: 1px;"/><path class="ygrid crisp" transform="translate(0,371.11)" d="M74,0h611" style="stroke: rgb(255, 255, 255); stroke-opacity: 1; stroke-width: 1px;"/><path class="ygrid crisp" transform="translate(0,320.45)" d="M74,0h611" style="stroke: rgb(255, 255, 255); stroke-opacity: 1; stroke-width: 1px;"/><path class="ygrid crisp" transform="translate(0,269.78)" d="M74,0h611" style="stroke: rgb(255, 255, 255); stroke-opacity: 1; stroke-width: 1px;"/><path class="ygrid crisp" transform="translate(0,219.11)" d="M74,0h611" style="stroke: rgb(255, 255, 255); stroke-opacity: 1; stroke-width: 1px;"/><path class="ygrid crisp" transform="translate(0,168.44)" d="M74,0h611" style="stroke: rgb(255, 255, 255); stroke-opacity: 1; stroke-width: 1px;"/><path class="ygrid crisp" transform="translate(0,117.78)" d="M74,0h611" style="stroke: rgb(255, 255, 255); stroke-opacity: 1; stroke-width: 1px;"/><path class="ygrid crisp" transform="translate(0,67.11)" d="M74,0h611" style="stroke: rgb(255, 255, 255); stroke-opacity: 1; stroke-width: 1px;"/><path class="ygrid crisp" transform="translate(0,16.439999999999998)" d="M74,0h611" style="stroke: rgb(255, 255, 255); stroke-opacity: 1; stroke-width: 1px;"/></g></g><g class="zerolinelayer"><path class="xzl zl crisp" transform="translate(445.47,0)" d="M0,8v430" style="stroke: rgb(255, 255, 255); stroke-opacity: 1; stroke-width: 2px;"/></g><path class="xlines-below"/><path class="ylines-below"/><g class="overlines-below"/><g class="xaxislayer-below"/><g class="yaxislayer-below"/><g class="overaxes-below"/><g class="plot" transform="translate(74,8)" clip-path="url(#clipeb5d3fxyplot)"><g class="scatterlayer mlayer"><g class="trace scatter trace66cbb3" style="stroke-miterlimit: 2; opacity: 1;"><g class="fills"/><g class="errorbars"/><g class="lines"><path class="js-line" d="M0,408.5L1.96,392.98L3.99,390.02L6.08,385.85L8.24,385.19L12.78,385.75L15.16,387.13L15.38,387.16L17.61,388.49L31.16,394.76L34.14,395.63L61.79,401.03L65.78,401.71L83.06,403.58L87.74,403.74L97.57,402.75L102.72,401.77L113.54,400.32L119.22,398.56L125.08,396.6L131.14,396.02L143.85,394.44L150.52,393.03L171.87,384.93L179.46,382.79L195.38,379.01L203.74,376.34L212.37,372.17L221.28,366.58L230.49,360.97L239.99,357.54L259.95,346.85L270.42,338.62L281.23,328.47L292.39,321.37L303.93,312.6L315.83,301.74L328.13,285.94L340.83,271.18L367.5,232.89L371.47,230.84L381.49,224.91L395.94,212.28L410.86,195.25L426.26,179.49L442.18,159.26L458.61,143.09L475.58,124.16L493.11,108.71L511.21,91.73L529.9,77.23L549.21,61.92L569.15,48.32L589.74,34.32L611,21.5" style="vector-effect: non-scaling-stroke; fill: none; stroke: rgb(31, 119, 180); stroke-opacity: 1; stroke-width: 3px; opacity: 1;"/></g><g class="points"/><g class="text"/></g></g></g><g class="overplot"/><path class="xlines-above crisp" d="M0,0" style="fill: none;"/><path class="ylines-above crisp" d="M0,0" style="fill: none;"/><g class="overlines-above"/><g class="xaxislayer-above"><g class="xtick"><text text-anchor="middle" x="0" y="459" transform="translate(85.86,0)" style="font-family: 'Times New Roman'; font-size: 20px; fill: rgb(0, 0, 0); fill-opacity: 1; white-space: pre; opacity: 1;">−1.5</text></g><g class="xtick"><text text-anchor="middle" x="0" y="459" style="font-family: 'Times New Roman'; font-size: 20px; fill: rgb(0, 0, 0); fill-opacity: 1; white-space: pre; opacity: 1;" transform="translate(205.73,0)">−1</text></g><g class="xtick"><text text-anchor="middle" x="0" y="459" style="font-family: 'Times New Roman'; font-size: 20px; fill: rgb(0, 0, 0); fill-opacity: 1; white-space: pre; opacity: 1;" transform="translate(325.6,0)">−0.5</text></g><g class="xtick"><text text-anchor="middle" x="0" y="459" style="font-family: 'Times New Roman'; font-size: 20px; fill: rgb(0, 0, 0); fill-opacity: 1; white-space: pre; opacity: 1;" transform="translate(445.47,0)">0</text></g><g class="xtick"><text text-anchor="middle" x="0" y="459" style="font-family: 'Times New Roman'; font-size: 20px; fill: rgb(0, 0, 0); fill-opacity: 1; white-space: pre; opacity: 1;" transform="translate(565.35,0)">0.5</text></g></g><g class="yaxislayer-above"><g class="ytick"><text text-anchor="end" x="73" y="7" transform="translate(0,421.78)" style="font-family: 'Times New Roman'; font-size: 20px; fill: rgb(0, 0, 0); fill-opacity: 1; white-space: pre; opacity: 1;">−1.8</text></g><g class="ytick"><text text-anchor="end" x="73" y="7" style="font-family: 'Times New Roman'; font-size: 20px; fill: rgb(0, 0, 0); fill-opacity: 1; white-space: pre; opacity: 1;" transform="translate(0,371.11)">−1.7</text></g><g class="ytick"><text text-anchor="end" x="73" y="7" style="font-family: 'Times New Roman'; font-size: 20px; fill: rgb(0, 0, 0); fill-opacity: 1; white-space: pre; opacity: 1;" transform="translate(0,320.45)">−1.6</text></g><g class="ytick"><text text-anchor="end" x="73" y="7" style="font-family: 'Times New Roman'; font-size: 20px; fill: rgb(0, 0, 0); fill-opacity: 1; white-space: pre; opacity: 1;" transform="translate(0,269.78)">−1.5</text></g><g class="ytick"><text text-anchor="end" x="73" y="7" style="font-family: 'Times New Roman'; font-size: 20px; fill: rgb(0, 0, 0); fill-opacity: 1; white-space: pre; opacity: 1;" transform="translate(0,219.11)">−1.4</text></g><g class="ytick"><text text-anchor="end" x="73" y="7" style="font-family: 'Times New Roman'; font-size: 20px; fill: rgb(0, 0, 0); fill-opacity: 1; white-space: pre; opacity: 1;" transform="translate(0,168.44)">−1.3</text></g><g class="ytick"><text text-anchor="end" x="73" y="7" style="font-family: 'Times New Roman'; font-size: 20px; fill: rgb(0, 0, 0); fill-opacity: 1; white-space: pre; opacity: 1;" transform="translate(0,117.78)">−1.2</text></g><g class="ytick"><text text-anchor="end" x="73" y="7" style="font-family: 'Times New Roman'; font-size: 20px; fill: rgb(0, 0, 0); fill-opacity: 1; white-space: pre; opacity: 1;" transform="translate(0,67.11)">−1.1</text></g><g class="ytick"><text text-anchor="end" x="73" y="7" style="font-family: 'Times New Roman'; font-size: 20px; fill: rgb(0, 0, 0); fill-opacity: 1; white-space: pre; opacity: 1;" transform="translate(0,16.439999999999998)">−1</text></g></g><g class="overaxes-above"/></g></g><g class="polarlayer"/><g class="smithlayer"/><g class="ternarylayer"/><g class="geolayer"/><g class="funnelarealayer"/><g class="pielayer"/><g class="iciclelayer"/><g class="treemaplayer"/><g class="sunburstlayer"/><g class="glimages"/><defs id="topdefs-eb5d3f"><g class="clips"/></defs><g class="layer-above"><g class="imagelayer"/><g class="shapelayer"/></g><g class="infolayer"><g class="g-gtitle"/><g class="g-xtitle" transform="translate(0,-0.48750000000001137)"><text class="xtitle" x="379.5" y="495.3" text-anchor="middle" style="font-family: 'Times New Roman'; font-size: 24px; fill: rgb(0, 0, 0); opacity: 1; font-weight: normal; white-space: pre;">Bond Holdings</text></g><g class="g-ytitle" transform="translate(16.5810546875,0)"><text class="ytitle" transform="rotate(-90,4.918750000000003,223)" x="4.918750000000003" y="223" text-anchor="middle" style="font-family: 'Times New Roman'; font-size: 24px; fill: rgb(0, 0, 0); opacity: 1; font-weight: normal; white-space: pre;">Consumption</text></g></g></svg>