<svg class="main-svg" xmlns="http://www.w3.org/2000/svg" xmlns:xlink="http://www.w3.org/1999/xlink" width="700" height="500" style="" viewBox="0 0 700 500"><rect x="0" y="0" width="700" height="500" style="fill: rgb(255, 255, 255); fill-opacity: 1;"/><defs id="defs-052169"><g class="clips"><clipPath id="clip052169xyplot" class="plotclip"><rect width="611" height="433"/></clipPath><clipPath class="axesclip" id="clip052169x"><rect x="74" y="0" width="611" height="500"/></clipPath><clipPath class="axesclip" id="clip052169y"><rect x="0" y="5" width="700" height="433"/></clipPath><clipPath class="axesclip" id="clip052169xy"><rect x="74" y="5" width="611" height="433"/></clipPath></g><g class="gradients"/><g class="patterns"/></defs><g class="bglayer"><rect class="bg" x="74" y="5" width="611" height="433" style="fill: rgb(245, 245, 245); fill-opacity: 1; stroke-width: 0;"/></g><g class="layer-below"><g class="imagelayer"/><g class="shapelayer"/></g><g class="cartesianlayer"><g class="subplot xy"><g class="layer-subplot"><g class="shapelayer"/><g class="imagelayer"/></g><g class="minor-gridlayer"><g class="x"/><g class="y"/></g><g class="gridlayer"><g class="x"><path class="xgrid crisp" transform="translate(139.24,0)" d="M0,5v433" style="stroke: rgb(255, 255, 255); stroke-opacity: 1; stroke-width: 1px;"/><path class="xgrid crisp" transform="translate(232.84,0)" d="M0,5v433" style="stroke: rgb(255, 255, 255); stroke-opacity: 1; stroke-width: 1px;"/><path class="xgrid crisp" transform="translate(326.44,0)" d="M0,5v433" style="stroke: rgb(255, 255, 255); stroke-opacity: 1; stroke-width: 1px;"/><path class="xgrid crisp" transform="translate(420.05,0)" d="M0,5v433" style="stroke: rgb(255, 255, 255); stroke-opacity: 1; stroke-width: 1px;"/><path class="xgrid crisp" transform="translate(607.25,0)" d="M0,5v433" style="stroke: rgb(255, 255, 255); stroke-opacity: 1; stroke-width: 1px;"/></g><g class="y"><path class="ygrid crisp" transform="translate(0,392.9)" d="M74,0h611" style="stroke: rgb(255, 255, 255); stroke-opacity: 1; stroke-width: 1px;"/><path class="ygrid crisp" transform="translate(0,330.12)" d="M74,0h611" style="stroke: rgb(255, 255, 255); stroke-opacity: 1; stroke-width: 1px;"/><path class="ygrid crisp" transform="translate(0,267.35)" d="M74,0h611" style="stroke: rgb(255, 255, 255); stroke-opacity: 1; stroke-width: 1px;"/><path class="ygrid crisp" transform="translate(0,204.57)" d="M74,0h611" style="stroke: rgb(255, 255, 255); stroke-opacity: 1; stroke-width: 1px;"/><path class="ygrid crisp" transform="translate(0,141.79)" d="M74,0h611" style="stroke: rgb(255, 255, 255); stroke-opacity: 1; stroke-width: 1px;"/><path class="ygrid crisp" transform="translate(0,79.01)" d="M74,0h611" style="stroke: rgb(255, 255, 255); stroke-opacity: 1; stroke-width: 1px;"/><path class="ygrid crisp" transform="translate(0,16.23)" d="M74,0h611" style="stroke: rgb(255, 255, 255); stroke-opacity: 1; stroke-width: 1px;"/></g></g><g class="zerolinelayer"><path class="xzl zl crisp" transform="translate(513.65,0)" d="M0,5v433" style="stroke: rgb(255, 255, 255); stroke-opacity: 1; stroke-width: 2px;"/></g><path class="xlines-below"/><path class="ylines-below"/><g class="overlines-below"/><g class="xaxislayer-below"/><g class="yaxislayer-below"/><g class="overaxes-below"/><g class="plot" transform="translate(74,5)" clip-path="url(#clip052169xyplot)"><g class="scatterlayer mlayer"><g class="trace scatter tracebc12f6" style="stroke-miterlimit: 2; opacity: 1;"><g class="fills"/><g class="errorbars"/><g class="lines"><path class="js-line" d="M0,411.35L1.53,385.72L3.12,376.93L4.75,375.64L6.44,376.1L24.36,389.81L26.69,391.16L36.8,395.17L39.54,395.94L68.6,402.85L72.38,402.88L88.78,401.62L93.22,401.17L112.49,398.86L117.7,398.66L134.41,397.51L140.34,396.6L152.8,393.5L159.34,391.25L173.07,387.41L180.27,385.98L195.39,381.94L203.32,378.14L211.52,374.47L219.98,369.42L237.74,362.27L247.06,358.87L256.69,354.92L266.63,349.44L276.9,341.54L287.5,335.08L309.76,322.79L321.44,314.06L333.5,302.01L345.96,292.3L372.11,270.05L385.83,254.69L414.64,222.28L429.76,206.96L439.65,200.41L445.37,195L461.49,174.77L478.14,152L495.33,129.8L513.09,108.69L531.43,89.2L550.37,70.71L569.93,53.52L590.14,37.11L611,21.65" style="vector-effect: non-scaling-stroke; fill: none; stroke: rgb(31, 119, 180); stroke-opacity: 1; stroke-width: 4px; opacity: 1;"/></g><g class="points"/><g class="text"/></g></g></g><g class="overplot"/><path class="xlines-above crisp" d="M0,0" style="fill: none;"/><path class="ylines-above crisp" d="M0,0" style="fill: none;"/><g class="overlines-above"/><g class="xaxislayer-above"><g class="xtick"><text text-anchor="middle" x="0" y="459" transform="translate(139.24,0)" style="font-family: 'Times New Roman'; font-size: 20px; fill: rgb(0, 0, 0); fill-opacity: 1; white-space: pre; opacity: 1;">−2</text></g><g class="xtick"><text text-anchor="middle" x="0" y="459" style="font-family: 'Times New Roman'; font-size: 20px; fill: rgb(0, 0, 0); fill-opacity: 1; white-space: pre; opacity: 1;" transform="translate(232.84,0)">−1.5</text></g><g class="xtick"><text text-anchor="middle" x="0" y="459" style="font-family: 'Times New Roman'; font-size: 20px; fill: rgb(0, 0, 0); fill-opacity: 1; white-space: pre; opacity: 1;" transform="translate(326.44,0)">−1</text></g><g class="xtick"><text text-anchor="middle" x="0" y="459" style="font-family: 'Times New Roman'; font-size: 20px; fill: rgb(0, 0, 0); fill-opacity: 1; white-space: pre; opacity: 1;" transform="translate(420.05,0)">−0.5</text></g><g class="xtick"><text text-anchor="middle" x="0" y="459" style="font-family: 'Times New Roman'; font-size: 20px; fill: rgb(0, 0, 0); fill-opacity: 1; white-space: pre; opacity: 1;" transform="translate(513.65,0)">0</text></g><g class="xtick"><text text-anchor="middle" x="0" y="459" style="font-family: 'Times New Roman'; font-size: 20px; fill: rgb(0, 0, 0); fill-opacity: 1; white-space: pre; opacity: 1;" transform="translate(607.25,0)">0.5</text></g></g><g class="yaxislayer-above"><g class="ytick"><text text-anchor="end" x="73" y="7" transform="translate(0,392.9)" style="font-family: 'Times New Roman'; font-size: 20px; fill: rgb(0, 0, 0); fill-opacity: 1; white-space: pre; opacity: 1;">−1.4</text></g><g class="ytick"><text text-anchor="end" x="73" y="7" style="font-family: 'Times New Roman'; font-size: 20px; fill: rgb(0, 0, 0); fill-opacity: 1; white-space: pre; opacity: 1;" transform="translate(0,330.12)">−1.3</text></g><g class="ytick"><text text-anchor="end" x="73" y="7" style="font-family: 'Times New Roman'; font-size: 20px; fill: rgb(0, 0, 0); fill-opacity: 1; white-space: pre; opacity: 1;" transform="translate(0,267.35)">−1.2</text></g><g class="ytick"><text text-anchor="end" x="73" y="7" style="font-family: 'Times New Roman'; font-size: 20px; fill: rgb(0, 0, 0); fill-opacity: 1; white-space: pre; opacity: 1;" transform="translate(0,204.57)">−1.1</text></g><g class="ytick"><text text-anchor="end" x="73" y="7" style="font-family: 'Times New Roman'; font-size: 20px; fill: rgb(0, 0, 0); fill-opacity: 1; white-space: pre; opacity: 1;" transform="translate(0,141.79)">−1</text></g><g class="ytick"><text text-anchor="end" x="73" y="7" style="font-family: 'Times New Roman'; font-size: 20px; fill: rgb(0, 0, 0); fill-opacity: 1; white-space: pre; opacity: 1;" transform="translate(0,79.01)">−0.9</text></g><g class="ytick"><text text-anchor="end" x="73" y="7" style="font-family: 'Times New Roman'; font-size: 20px; fill: rgb(0, 0, 0); fill-opacity: 1; white-space: pre; opacity: 1;" transform="translate(0,16.23)">−0.8</text></g></g><g class="overaxes-above"/></g></g><g class="polarlayer"/><g class="smithlayer"/><g class="ternarylayer"/><g class="geolayer"/><g class="funnelarealayer"/><g class="pielayer"/><g class="iciclelayer"/><g class="treemaplayer"/><g class="sunburstlayer"/><g class="glimages"/><defs id="topdefs-052169"><g class="clips"/></defs><g class="layer-above"><g class="imagelayer"/><g class="shapelayer"/></g><g class="infolayer"><g class="g-gtitle"/><g class="g-xtitle" transform="translate(0,-0.48750000000001137)"><text class="xtitle" x="379.5" y="495.3" text-anchor="middle" style="font-family: 'Times New Roman'; font-size: 24px; fill: rgb(0, 0, 0); opacity: 1; font-weight: normal; white-space: pre;">Bond/IOU Holdings</text></g><g class="g-ytitle" transform="translate(16.5810546875,0)"><text class="ytitle" transform="rotate(-90,4.918750000000003,221.5)" x="4.918750000000003" y="221.5" text-anchor="middle" style="font-family: 'Times New Roman'; font-size: 24px; fill: rgb(0, 0, 0); opacity: 1; font-weight: normal; white-space: pre;">Consumption</text></g></g></svg>