<svg class="main-svg" xmlns="http://www.w3.org/2000/svg" xmlns:xlink="http://www.w3.org/1999/xlink" width="700" height="500" style="" viewBox="0 0 700 500"><rect x="0" y="0" width="700" height="500" style="fill: rgb(255, 255, 255); fill-opacity: 1;"/><defs id="defs-7c9c9b"><g class="clips"><clipPath id="clip7c9c9bxyplot" class="plotclip"><rect width="627" height="464"/></clipPath><clipPath class="axesclip" id="clip7c9c9bx"><rect x="58" y="0" width="627" height="500"/></clipPath><clipPath class="axesclip" id="clip7c9c9by"><rect x="0" y="5" width="700" height="464"/></clipPath><clipPath class="axesclip" id="clip7c9c9bxy"><rect x="58" y="5" width="627" height="464"/></clipPath></g><g class="gradients"/><g class="patterns"/></defs><g class="bglayer"><rect class="bg" x="58" y="5" width="627" height="464" style="fill: rgb(245, 245, 245); fill-opacity: 1; stroke-width: 0;"/></g><g class="layer-below"><g class="imagelayer"/><g class="shapelayer"/></g><g class="cartesianlayer"><g class="subplot xy"><g class="layer-subplot"><g class="shapelayer"/><g class="imagelayer"/></g><g class="minor-gridlayer"><g class="x"/><g class="y"/></g><g class="gridlayer"><g class="x"><path class="xgrid crisp" transform="translate(130.61,0)" d="M0,5v464" style="stroke: rgb(255, 255, 255); stroke-opacity: 1; stroke-width: 1px;"/><path class="xgrid crisp" transform="translate(218.62,0)" d="M0,5v464" style="stroke: rgb(255, 255, 255); stroke-opacity: 1; stroke-width: 1px;"/><path class="xgrid crisp" transform="translate(306.61,0)" d="M0,5v464" style="stroke: rgb(255, 255, 255); stroke-opacity: 1; stroke-width: 1px;"/><path class="xgrid crisp" transform="translate(394.62,0)" d="M0,5v464" style="stroke: rgb(255, 255, 255); stroke-opacity: 1; stroke-width: 1px;"/><path class="xgrid crisp" transform="translate(482.6,0)" d="M0,5v464" style="stroke: rgb(255, 255, 255); stroke-opacity: 1; stroke-width: 1px;"/><path class="xgrid crisp" transform="translate(570.61,0)" d="M0,5v464" style="stroke: rgb(255, 255, 255); stroke-opacity: 1; stroke-width: 1px;"/><path class="xgrid crisp" transform="translate(658.59,0)" d="M0,5v464" style="stroke: rgb(255, 255, 255); stroke-opacity: 1; stroke-width: 1px;"/></g><g class="y"><path class="ygrid crisp" transform="translate(0,463.96)" d="M58,0h627" style="stroke: rgb(255, 255, 255); stroke-opacity: 1; stroke-width: 1px;"/><path class="ygrid crisp" transform="translate(0,404.53)" d="M58,0h627" style="stroke: rgb(255, 255, 255); stroke-opacity: 1; stroke-width: 1px;"/><path class="ygrid crisp" transform="translate(0,345.1)" d="M58,0h627" style="stroke: rgb(255, 255, 255); stroke-opacity: 1; stroke-width: 1px;"/><path class="ygrid crisp" transform="translate(0,285.67)" d="M58,0h627" style="stroke: rgb(255, 255, 255); stroke-opacity: 1; stroke-width: 1px;"/><path class="ygrid crisp" transform="translate(0,226.24)" d="M58,0h627" style="stroke: rgb(255, 255, 255); stroke-opacity: 1; stroke-width: 1px;"/><path class="ygrid crisp" transform="translate(0,166.81)" d="M58,0h627" style="stroke: rgb(255, 255, 255); stroke-opacity: 1; stroke-width: 1px;"/><path class="ygrid crisp" transform="translate(0,107.38)" d="M58,0h627" style="stroke: rgb(255, 255, 255); stroke-opacity: 1; stroke-width: 1px;"/><path class="ygrid crisp" transform="translate(0,47.94)" d="M58,0h627" style="stroke: rgb(255, 255, 255); stroke-opacity: 1; stroke-width: 1px;"/></g></g><g class="zerolinelayer"/><path class="xlines-below"/><path class="ylines-below"/><g class="overlines-below"/><g class="xaxislayer-below"/><g class="yaxislayer-below"/><g class="overaxes-below"/><g class="plot" transform="translate(58,5)" clip-path="url(#clip7c9c9bxyplot)"><g class="scatterlayer mlayer"><g class="trace scatter trace836636" style="stroke-miterlimit: 2; opacity: 1;"><g class="fills"/><g class="errorbars"/><g class="lines"><path class="js-line" d="M0,384.45L2.22,384.09L4.41,379.42L6.6,380.64L8.82,392.98L13.2,403.62L15.39,403.41L17.61,390.48L19.83,382.97L24.19,363.34L26.41,366.61L28.62,369.7L30.79,362.76L32.98,357.26L35.2,358.68L37.42,349.76L39.61,356.94L41.8,359.76L44.02,353.08L46.23,363.16L48.4,355.49L50.59,369.2L52.81,364.48L55.03,351.17L57.19,347.06L59.39,338.36L61.6,339.01L63.82,340.09L65.99,340.19L68.18,340.61L70.4,331.97L72.61,346.3L74.81,341.62L77,351.74L79.22,330.39L81.43,315.27L83.6,319.64L85.79,319.73L88.01,311.76L90.23,321.09L92.39,363.21L94.59,356.72L96.8,324.03L99.02,321.98L101.19,315.92L103.38,313.32L105.6,323.45L112.2,311.73L114.41,307.73L116.63,310.36L118.8,321.17L120.99,310.82L123.21,306.59L127.59,328.2L129.78,347.64L132,340.15L134.22,322.74L136.39,320.83L138.58,312.56L140.79,308.55L143.01,329.42L145.2,314.2L147.4,314.46L149.61,296.85L151.83,314.26L154,327.12L156.19,335.56L160.62,352.84L162.79,384.87L167.2,352.78L169.42,347.31L171.58,349.77L173.78,353.93L175.99,343.98L178.21,341.92L180.4,348.2L182.59,345.92L184.81,330.07L187.03,348.83L189.2,364.76L191.39,357.7L193.61,384.42L195.82,388.57L197.99,403.96L200.18,426.45L202.4,427.73L204.62,413.82L206.78,404.52L208.98,418.23L211.19,415.33L213.41,408.6L215.6,406.24L217.79,406.1L220.01,405.27L222.23,414.1L224.39,417.38L226.59,423.18L233.19,436.33L235.38,434.36L237.6,440.8L239.81,438.34L241.98,438.66L244.17,436.93L246.39,433.87L248.61,440.5L252.99,422.89L255.21,420.71L257.43,427.6L259.59,428.49L261.79,439.49L264,429.43L266.22,432.86L268.39,433.7L270.58,426.42L272.8,414.05L277.18,402.96L279.37,405.82L283.81,419.66L286,421.25L290.41,415.51L292.62,410.38L294.79,406.4L296.98,410.4L301.42,392.01L303.59,386.24L305.78,390.76L307.99,377.19L310.21,366.47L312.38,367.37L314.57,364.01L316.79,381.82L319.01,375.68L321.2,375.24L323.39,374.9L325.61,369.19L329.99,367.4L332.18,361.91L334.4,358.47L336.62,366.5L338.78,366.1L340.98,378.71L345.41,352.43L347.58,357.78L349.77,355.1L351.99,341.41L356.4,356.46L358.59,355.33L360.81,346.31L363.02,344.61L365.19,346.44L367.38,343.21L369.6,340.8L371.82,347.14L373.98,353.43L376.18,352.4L378.39,353.49L380.61,347.71L389.4,317.37L391.59,316.26L393.79,317.26L396,313.32L398.22,317.7L400.39,300.1L402.58,290.15L404.8,287.49L407.01,265.94L409.18,263.17L411.37,288.5L413.59,262.16L415.81,266.8L417.98,257.49L420.17,273.61L422.38,241.82L424.6,233.92L426.79,257.76L428.99,260.5L431.2,284.95L433.42,302.02L435.59,292.7L437.78,318.56L440,298.37L442.21,300.87L444.38,319.44L446.57,347.7L448.79,338.1L451.01,347.07L453.17,327.02L455.37,326.1L457.58,309.45L459.8,287.55L461.99,297.36L464.18,299.6L466.4,287.52L468.62,293.45L470.79,289.01L475.19,284.64L477.41,265.14L479.58,273.02L481.77,266.5L486.21,243.89L488.37,243.59L490.57,234.75L492.78,244.3L495,253.81L497.19,268.52L501.6,305.64L503.82,312.92L508.18,270.53L510.39,271.14L512.61,263.14L514.78,281.98L519.19,253.45L521.4,240.84L523.57,243.06L525.76,266.81L527.98,258.98L530.2,243.83L532.39,250.24L534.58,238.57L536.8,236.7L539.02,221.87L541.18,226.83L543.38,220.01L545.59,213.07L547.81,198.26L549.98,192.16L552.17,201.75L556.6,186.69L558.77,192.35L560.96,209.9L563.18,201.41L565.4,195.09L567.59,192.49L569.78,188.33L572,192.42L574.21,179.29L576.38,174.83L578.57,171.4L580.79,161.41L585.18,166.67L587.37,158.39L589.58,196.14L591.8,153.92L593.97,148.72L596.16,153.27L598.38,130.91L600.59,185.74L602.79,76.52L604.98,95.9L607.2,44.93L609.41,32.39L611.58,23.2L613.77,32.3L615.99,30.23L618.21,51.61L620.37,123.07L622.57,145.44L624.78,133.67L627,116.72" style="vector-effect: non-scaling-stroke; fill: none; stroke: rgb(31, 119, 180); stroke-opacity: 1; stroke-width: 3px; opacity: 1;"/></g><g class="points"/><g class="text"/></g></g></g><g class="overplot"/><path class="xlines-above crisp" d="M0,0" style="fill: none;"/><path class="ylines-above crisp" d="M0,0" style="fill: none;"/><g class="overlines-above"/><g class="xaxislayer-above"><g class="xtick"><text text-anchor="middle" x="0" y="490" transform="translate(130.61,0)" style="font-family: 'Times New Roman'; font-size: 20px; fill: rgb(0, 0, 0); fill-opacity: 1; white-space: pre; opacity: 1;">1960</text></g><g class="xtick"><text text-anchor="middle" x="0" y="490" style="font-family: 'Times New Roman'; font-size: 20px; fill: rgb(0, 0, 0); fill-opacity: 1; white-space: pre; opacity: 1;" transform="translate(218.62,0)">1970</text></g><g class="xtick"><text text-anchor="middle" x="0" y="490" style="font-family: 'Times New Roman'; font-size: 20px; fill: rgb(0, 0, 0); fill-opacity: 1; white-space: pre; opacity: 1;" transform="translate(306.61,0)">1980</text></g><g class="xtick"><text text-anchor="middle" x="0" y="490" style="font-family: 'Times New Roman'; font-size: 20px; fill: rgb(0, 0, 0); fill-opacity: 1; white-space: pre; opacity: 1;" transform="translate(394.62,0)">1990</text></g><g class="xtick"><text text-anchor="middle" x="0" y="490" style="font-family: 'Times New Roman'; font-size: 20px; fill: rgb(0, 0, 0); fill-opacity: 1; white-space: pre; opacity: 1;" transform="translate(482.6,0)">2000</text></g><g class="xtick"><text text-anchor="middle" x="0" y="490" style="font-family: 'Times New Roman'; font-size: 20px; fill: rgb(0, 0, 0); fill-opacity: 1; white-space: pre; opacity: 1;" transform="translate(570.61,0)">2010</text></g><g class="xtick"><text text-anchor="middle" x="0" y="490" style="font-family: 'Times New Roman'; font-size: 20px; fill: rgb(0, 0, 0); fill-opacity: 1; white-space: pre; opacity: 1;" transform="translate(658.59,0)">2020</text></g></g><g class="yaxislayer-above"><g class="ytick"><text text-anchor="end" x="57" y="7" transform="translate(0,463.96)" style="font-family: 'Times New Roman'; font-size: 20px; fill: rgb(0, 0, 0); fill-opacity: 1; white-space: pre; opacity: 1;">3</text></g><g class="ytick"><text text-anchor="end" x="57" y="7" style="font-family: 'Times New Roman'; font-size: 20px; fill: rgb(0, 0, 0); fill-opacity: 1; white-space: pre; opacity: 1;" transform="translate(0,404.53)">4</text></g><g class="ytick"><text text-anchor="end" x="57" y="7" style="font-family: 'Times New Roman'; font-size: 20px; fill: rgb(0, 0, 0); fill-opacity: 1; white-space: pre; opacity: 1;" transform="translate(0,345.1)">5</text></g><g class="ytick"><text text-anchor="end" x="57" y="7" style="font-family: 'Times New Roman'; font-size: 20px; fill: rgb(0, 0, 0); fill-opacity: 1; white-space: pre; opacity: 1;" transform="translate(0,285.67)">6</text></g><g class="ytick"><text text-anchor="end" x="57" y="7" style="font-family: 'Times New Roman'; font-size: 20px; fill: rgb(0, 0, 0); fill-opacity: 1; white-space: pre; opacity: 1;" transform="translate(0,226.24)">7</text></g><g class="ytick"><text text-anchor="end" x="57" y="7" style="font-family: 'Times New Roman'; font-size: 20px; fill: rgb(0, 0, 0); fill-opacity: 1; white-space: pre; opacity: 1;" transform="translate(0,166.81)">8</text></g><g class="ytick"><text text-anchor="end" x="57" y="7" style="font-family: 'Times New Roman'; font-size: 20px; fill: rgb(0, 0, 0); fill-opacity: 1; white-space: pre; opacity: 1;" transform="translate(0,107.38)">9</text></g><g class="ytick"><text text-anchor="end" x="57" y="7" style="font-family: 'Times New Roman'; font-size: 20px; fill: rgb(0, 0, 0); fill-opacity: 1; white-space: pre; opacity: 1;" transform="translate(0,47.94)">10</text></g></g><g class="overaxes-above"/></g></g><g class="polarlayer"/><g class="smithlayer"/><g class="ternarylayer"/><g class="geolayer"/><g class="funnelarealayer"/><g class="pielayer"/><g class="iciclelayer"/><g class="treemaplayer"/><g class="sunburstlayer"/><g class="glimages"/><defs id="topdefs-7c9c9b"><g class="clips"/></defs><g class="layer-above"><g class="imagelayer"/><g class="shapelayer"><path data-index="0" fill-rule="evenodd" d="M58,321.91L685,321.91" clip-path="url(#clip7c9c9by)" style="opacity: 1; stroke: rgb(255, 127, 14); stroke-opacity: 1; fill: rgb(0, 0, 0); fill-opacity: 0; stroke-dasharray: 3px, 3px; stroke-width: 2px;"/></g></g><g class="infolayer"><g class="g-gtitle"/><g class="g-xtitle"/><g class="g-ytitle" transform="translate(16.2998046875,0)"><text class="ytitle" transform="rotate(-90,5.200000000000003,237)" x="5.200000000000003" y="237" text-anchor="middle" style="font-family: 'Times New Roman'; font-size: 24px; fill: rgb(0, 0, 0); opacity: 1; font-weight: normal; white-space: pre;">Quarterly Model Units</text></g><g class="annotation" data-index="0" style="opacity: 1;"><g class="annotation-text-g" transform="rotate(0,665.5,335.41)"><g class="cursor-pointer" transform="translate(646,322)"><rect class="bg" x="0.5" y="0.5" width="38" height="26" style="stroke-width: 1px; stroke: rgb(0, 0, 0); stroke-opacity: 0; fill: rgb(0, 0, 0); fill-opacity: 0;"/><text class="annotation-text" text-anchor="middle" x="19.5" y="20" style="font-family: 'Times New Roman'; font-size: 20px; fill: rgb(0, 0, 0); fill-opacity: 1; white-space: pre;">5.39</text></g></g></g></g></svg>