<svg class="main-svg" xmlns="http://www.w3.org/2000/svg" xmlns:xlink="http://www.w3.org/1999/xlink" width="700" height="500" style="" viewBox="0 0 700 500"><rect x="0" y="0" width="700" height="500" style="fill: rgb(255, 255, 255); fill-opacity: 1;"/><defs id="defs-7d246b"><g class="clips"><clipPath id="clip7d246bxyplot" class="plotclip"><rect width="622" height="464"/></clipPath><clipPath class="axesclip" id="clip7d246bx"><rect x="63" y="0" width="622" height="500"/></clipPath><clipPath class="axesclip" id="clip7d246by"><rect x="0" y="5" width="700" height="464"/></clipPath><clipPath class="axesclip" id="clip7d246bxy"><rect x="63" y="5" width="622" height="464"/></clipPath></g><g class="gradients"/><g class="patterns"/></defs><g class="bglayer"><rect class="bg" x="63" y="5" width="622" height="464" style="fill: rgb(245, 245, 245); fill-opacity: 1; stroke-width: 0;"/></g><g class="layer-below"><g class="imagelayer"/><g class="shapelayer"/></g><g class="cartesianlayer"><g class="subplot xy"><g class="layer-subplot"><g class="shapelayer"/><g class="imagelayer"/></g><g class="minor-gridlayer"><g class="x"/><g class="y"/></g><g class="gridlayer"><g class="x"><path class="xgrid crisp" transform="translate(135.03,0)" d="M0,5v464" style="stroke: rgb(255, 255, 255); stroke-opacity: 1; stroke-width: 1px;"/><path class="xgrid crisp" transform="translate(222.34,0)" d="M0,5v464" style="stroke: rgb(255, 255, 255); stroke-opacity: 1; stroke-width: 1px;"/><path class="xgrid crisp" transform="translate(309.63,0)" d="M0,5v464" style="stroke: rgb(255, 255, 255); stroke-opacity: 1; stroke-width: 1px;"/><path class="xgrid crisp" transform="translate(396.93,0)" d="M0,5v464" style="stroke: rgb(255, 255, 255); stroke-opacity: 1; stroke-width: 1px;"/><path class="xgrid crisp" transform="translate(484.22,0)" d="M0,5v464" style="stroke: rgb(255, 255, 255); stroke-opacity: 1; stroke-width: 1px;"/><path class="xgrid crisp" transform="translate(571.52,0)" d="M0,5v464" style="stroke: rgb(255, 255, 255); stroke-opacity: 1; stroke-width: 1px;"/><path class="xgrid crisp" transform="translate(658.81,0)" d="M0,5v464" style="stroke: rgb(255, 255, 255); stroke-opacity: 1; stroke-width: 1px;"/></g><g class="y"><path class="ygrid crisp" transform="translate(0,434.33)" d="M63,0h622" style="stroke: rgb(255, 255, 255); stroke-opacity: 1; stroke-width: 1px;"/><path class="ygrid crisp" transform="translate(0,359.41)" d="M63,0h622" style="stroke: rgb(255, 255, 255); stroke-opacity: 1; stroke-width: 1px;"/><path class="ygrid crisp" transform="translate(0,284.49)" d="M63,0h622" style="stroke: rgb(255, 255, 255); stroke-opacity: 1; stroke-width: 1px;"/><path class="ygrid crisp" transform="translate(0,209.56)" d="M63,0h622" style="stroke: rgb(255, 255, 255); stroke-opacity: 1; stroke-width: 1px;"/><path class="ygrid crisp" transform="translate(0,134.64)" d="M63,0h622" style="stroke: rgb(255, 255, 255); stroke-opacity: 1; stroke-width: 1px;"/><path class="ygrid crisp" transform="translate(0,59.72)" d="M63,0h622" style="stroke: rgb(255, 255, 255); stroke-opacity: 1; stroke-width: 1px;"/></g></g><g class="zerolinelayer"/><path class="xlines-below"/><path class="ylines-below"/><g class="overlines-below"/><g class="xaxislayer-below"/><g class="yaxislayer-below"/><g class="overaxes-below"/><g class="plot" transform="translate(63,5)" clip-path="url(#clip7d246bxyplot)"><g class="scatterlayer mlayer"><g class="trace scatter trace57c3da" style="stroke-miterlimit: 2; opacity: 1;"><g class="fills"/><g class="errorbars"/><g class="lines"><path class="js-line" d="M0,440.8L2.2,437.99L4.37,425.47L8.75,413.9L10.95,403.09L13.1,398.75L15.27,392.44L17.47,385.33L19.67,386.34L21.82,384.44L24,385.31L26.19,384.47L28.39,382.02L32.72,365.44L34.92,359.62L37.12,352.2L39.29,350.65L41.47,349.23L43.67,350.93L45.86,351.85L48.02,348.48L50.19,348.6L52.39,343.49L54.59,340.65L56.74,345.35L58.91,352.95L61.11,357.2L65.46,351.2L67.64,340.96L69.84,329.73L72.03,333.39L74.21,323.99L76.38,321.33L78.58,314.31L80.78,315L82.93,322.12L85.11,326.36L87.31,326.67L89.51,329.58L91.66,322.94L93.83,321.22L98.23,310.34L100.38,306.09L102.56,303.27L104.75,297.23L106.95,293.68L109.13,288.61L111.3,284.75L113.5,278.68L115.7,276.9L117.85,271.19L120.03,271.65L122.23,275.58L124.42,277.45L126.57,276.69L128.75,280.12L130.95,282.15L133.15,283.51L135.3,281.96L139.67,284.97L141.87,289.92L144.05,291.94L146.22,289.74L148.42,284.69L150.62,284.58L152.77,281.59L154.94,283.61L157.14,281.04L159.34,281.97L161.49,285.34L163.67,287.3L165.87,286.14L168.07,289.17L170.22,288.6L172.39,285.69L174.59,278.34L176.79,280.57L178.96,278.85L181.14,276.05L183.34,273.52L185.54,269.52L189.86,261.19L192.06,262.34L194.26,259.06L196.41,262.49L198.59,265.38L200.78,275.8L202.98,278.67L205.13,292.89L207.31,299.98L209.51,301.99L211.71,305.41L213.88,304.08L216.06,302.59L218.26,299.35L220.45,298.19L222.61,294.92L224.78,292.77L226.98,287.3L229.18,280.21L231.33,281.52L233.5,277.25L235.7,277.45L237.9,271.44L240.05,268.06L244.43,263.94L246.63,268.35L250.97,282.42L253.17,294.69L255.37,305.54L257.52,304.33L259.7,308.45L261.9,308.92L264.1,303.05L266.25,304.48L268.42,305.87L270.62,304.68L274.97,308.95L277.15,308.53L281.54,297.72L283.72,288.19L288.09,273.7L290.29,263.42L294.62,249.24L296.82,242.35L299.01,238.97L301.17,231.27L303.34,226.49L305.54,225.34L307.74,233.34L309.89,233.29L312.06,231.76L314.26,236.02L316.46,232.77L318.64,234.89L320.81,236.58L323.01,240.49L325.21,233.4L327.36,233.75L329.53,235.17L331.73,232.1L333.93,238.81L336.08,242.63L340.46,242.65L342.66,244.5L349.18,263.93L351.38,269.18L353.55,276.46L355.73,280.52L357.93,284.12L360.13,283.23L362.28,282.88L364.45,279.32L366.65,275.45L368.85,269.7L373.18,253.31L375.37,243.61L381.9,212.1L384.1,203.69L386.3,198.06L388.47,197.12L392.85,191.9L395.04,193.84L399.37,197L401.57,194.55L403.77,196.94L405.92,188.42L408.09,188.4L410.29,189.35L414.64,181.98L416.82,179.81L419.02,183.8L421.22,179.37L423.39,176.55L425.57,162.41L429.96,143.25L432.11,140.48L434.29,134.26L436.49,122.26L438.69,120.81L440.84,116.9L447.41,110.65L449.56,108.78L453.93,118.75L456.13,117.26L458.31,120.99L460.48,121.36L462.68,122.98L464.88,126.3L467.03,126.14L469.21,129.45L471.41,132.16L473.6,128.33L475.76,132.05L477.93,129.74L484.48,129.9L486.65,125.88L488.85,122.65L491.05,114.98L495.4,119.57L497.6,111.72L499.8,109.41L501.95,114.06L504.12,119.68L506.32,131.47L508.52,139.23L510.67,150.27L512.85,154.91L515.05,135.97L517.25,132.47L519.4,135.32L521.57,133.14L523.77,132.7L525.97,133.46L528.14,130.83L530.32,127.83L532.52,122.46L534.72,120.08L536.87,115.55L541.24,113.52L543.44,104.04L547.77,103.53L549.97,98.53L554.31,90.64L556.49,84.16L558.69,98.24L560.89,90.45L563.06,87.15L565.24,82.35L569.63,77.24L571.79,75.5L576.16,77.05L578.36,77.64L580.51,82.97L582.68,81.08L584.88,77.29L587.08,76.05L589.23,77.57L591.41,77.31L593.61,75.31L595.81,68.69L597.98,23.2L600.16,70.27L602.35,76.27L604.55,86.41L606.7,95.93L608.88,99.89L611.08,108.76L613.28,106.33L617.6,106.71L619.8,105.38L622,107.71" style="vector-effect: non-scaling-stroke; fill: none; stroke: rgb(31, 119, 180); stroke-opacity: 1; stroke-width: 3px; opacity: 1;"/></g><g class="points"/><g class="text"/></g></g></g><g class="overplot"/><path class="xlines-above crisp" d="M0,0" style="fill: none;"/><path class="ylines-above crisp" d="M0,0" style="fill: none;"/><g class="overlines-above"/><g class="xaxislayer-above"><g class="xtick"><text text-anchor="middle" x="0" y="490" transform="translate(135.03,0)" style="font-family: 'Times New Roman'; font-size: 20px; fill: rgb(0, 0, 0); fill-opacity: 1; white-space: pre; opacity: 1;">1960</text></g><g class="xtick"><text text-anchor="middle" x="0" y="490" style="font-family: 'Times New Roman'; font-size: 20px; fill: rgb(0, 0, 0); fill-opacity: 1; white-space: pre; opacity: 1;" transform="translate(222.34,0)">1970</text></g><g class="xtick"><text text-anchor="middle" x="0" y="490" style="font-family: 'Times New Roman'; font-size: 20px; fill: rgb(0, 0, 0); fill-opacity: 1; white-space: pre; opacity: 1;" transform="translate(309.63,0)">1980</text></g><g class="xtick"><text text-anchor="middle" x="0" y="490" style="font-family: 'Times New Roman'; font-size: 20px; fill: rgb(0, 0, 0); fill-opacity: 1; white-space: pre; opacity: 1;" transform="translate(396.93,0)">1990</text></g><g class="xtick"><text text-anchor="middle" x="0" y="490" style="font-family: 'Times New Roman'; font-size: 20px; fill: rgb(0, 0, 0); fill-opacity: 1; white-space: pre; opacity: 1;" transform="translate(484.22,0)">2000</text></g><g class="xtick"><text text-anchor="middle" x="0" y="490" style="font-family: 'Times New Roman'; font-size: 20px; fill: rgb(0, 0, 0); fill-opacity: 1; white-space: pre; opacity: 1;" transform="translate(571.52,0)">2010</text></g><g class="xtick"><text text-anchor="middle" x="0" y="490" style="font-family: 'Times New Roman'; font-size: 20px; fill: rgb(0, 0, 0); fill-opacity: 1; white-space: pre; opacity: 1;" transform="translate(658.81,0)">2020</text></g></g><g class="yaxislayer-above"><g class="ytick"><text text-anchor="end" x="62" y="7" transform="translate(0,434.33)" style="font-family: 'Times New Roman'; font-size: 20px; fill: rgb(0, 0, 0); fill-opacity: 1; white-space: pre; opacity: 1;">0.3</text></g><g class="ytick"><text text-anchor="end" x="62" y="7" style="font-family: 'Times New Roman'; font-size: 20px; fill: rgb(0, 0, 0); fill-opacity: 1; white-space: pre; opacity: 1;" transform="translate(0,359.41)">0.4</text></g><g class="ytick"><text text-anchor="end" x="62" y="7" style="font-family: 'Times New Roman'; font-size: 20px; fill: rgb(0, 0, 0); fill-opacity: 1; white-space: pre; opacity: 1;" transform="translate(0,284.49)">0.5</text></g><g class="ytick"><text text-anchor="end" x="62" y="7" style="font-family: 'Times New Roman'; font-size: 20px; fill: rgb(0, 0, 0); fill-opacity: 1; white-space: pre; opacity: 1;" transform="translate(0,209.56)">0.6</text></g><g class="ytick"><text text-anchor="end" x="62" y="7" style="font-family: 'Times New Roman'; font-size: 20px; fill: rgb(0, 0, 0); fill-opacity: 1; white-space: pre; opacity: 1;" transform="translate(0,134.64)">0.7</text></g><g class="ytick"><text text-anchor="end" x="62" y="7" style="font-family: 'Times New Roman'; font-size: 20px; fill: rgb(0, 0, 0); fill-opacity: 1; white-space: pre; opacity: 1;" transform="translate(0,59.72)">0.8</text></g></g><g class="overaxes-above"/></g></g><g class="polarlayer"/><g class="smithlayer"/><g class="ternarylayer"/><g class="geolayer"/><g class="funnelarealayer"/><g class="pielayer"/><g class="iciclelayer"/><g class="treemaplayer"/><g class="sunburstlayer"/><g class="glimages"/><defs id="topdefs-7d246b"><g class="clips"/></defs><g class="layer-above"><g class="imagelayer"/><g class="shapelayer"><path data-index="0" fill-rule="evenodd" d="M63,234.66L685,234.66" clip-path="url(#clip7d246by)" style="opacity: 1; stroke: rgb(255, 127, 14); stroke-opacity: 1; fill: rgb(0, 0, 0); fill-opacity: 0; stroke-dasharray: 3px, 3px; stroke-width: 2px;"/></g></g><g class="infolayer"><g class="g-gtitle"/><g class="g-xtitle"/><g class="g-ytitle" transform="translate(16.2998046875,0)"><text class="ytitle" transform="rotate(-90,5.200000000000003,237)" x="5.200000000000003" y="237" text-anchor="middle" style="font-family: 'Times New Roman'; font-size: 24px; fill: rgb(0, 0, 0); opacity: 1; font-weight: normal; white-space: pre;">Fraction of Quarterly GDP</text></g><g class="annotation" data-index="0" style="opacity: 1;"><g class="annotation-text-g" transform="rotate(0,665.5,248.16)"><g class="cursor-pointer" transform="translate(646,235)"><rect class="bg" x="0.5" y="0.5" width="38" height="26" style="stroke-width: 1px; stroke: rgb(0, 0, 0); stroke-opacity: 0; fill: rgb(0, 0, 0); fill-opacity: 0;"/><text class="annotation-text" text-anchor="middle" x="19.5" y="20" style="font-family: 'Times New Roman'; font-size: 20px; fill: rgb(0, 0, 0); fill-opacity: 1; white-space: pre;">0.57</text></g></g></g></g></svg>