<svg class="main-svg" xmlns="http://www.w3.org/2000/svg" xmlns:xlink="http://www.w3.org/1999/xlink" width="700" height="500" style="" viewBox="0 0 700 500"><rect x="0" y="0" width="700" height="500" style="fill: rgb(255, 255, 255); fill-opacity: 1;"/><defs id="defs-a698d3"><g class="clips"><clipPath id="clipa698d3xyplot" class="plotclip"><rect width="627" height="424"/></clipPath><clipPath class="axesclip" id="clipa698d3x"><rect x="58" y="0" width="627" height="500"/></clipPath><clipPath class="axesclip" id="clipa698d3y"><rect x="0" y="14" width="700" height="424"/></clipPath><clipPath class="axesclip" id="clipa698d3xy"><rect x="58" y="14" width="627" height="424"/></clipPath></g><g class="gradients"/><g class="patterns"/></defs><g class="bglayer"><rect class="bg" x="58" y="14" width="627" height="424" style="fill: rgb(245, 245, 245); fill-opacity: 1; stroke-width: 0;"/></g><g class="layer-below"><g class="imagelayer"/><g class="shapelayer"/></g><g class="cartesianlayer"><g class="subplot xy"><g class="layer-subplot"><g class="shapelayer"/><g class="imagelayer"/></g><g class="minor-gridlayer"><g class="x"/><g class="y"/></g><g class="gridlayer"><g class="x"><path class="xgrid crisp" transform="translate(200.01,0)" d="M0,14v424" style="stroke: rgb(255, 255, 255); stroke-opacity: 1; stroke-width: 1px;"/><path class="xgrid crisp" transform="translate(274.85,0)" d="M0,14v424" style="stroke: rgb(255, 255, 255); stroke-opacity: 1; stroke-width: 1px;"/><path class="xgrid crisp" transform="translate(349.68,0)" d="M0,14v424" style="stroke: rgb(255, 255, 255); stroke-opacity: 1; stroke-width: 1px;"/><path class="xgrid crisp" transform="translate(424.51,0)" d="M0,14v424" style="stroke: rgb(255, 255, 255); stroke-opacity: 1; stroke-width: 1px;"/><path class="xgrid crisp" transform="translate(499.34,0)" d="M0,14v424" style="stroke: rgb(255, 255, 255); stroke-opacity: 1; stroke-width: 1px;"/><path class="xgrid crisp" transform="translate(574.17,0)" d="M0,14v424" style="stroke: rgb(255, 255, 255); stroke-opacity: 1; stroke-width: 1px;"/><path class="xgrid crisp" transform="translate(649,0)" d="M0,14v424" style="stroke: rgb(255, 255, 255); stroke-opacity: 1; stroke-width: 1px;"/></g><g class="y"><path class="ygrid crisp" transform="translate(0,349.89)" d="M58,0h627" style="stroke: rgb(255, 255, 255); stroke-opacity: 1; stroke-width: 1px;"/><path class="ygrid crisp" transform="translate(0,282.99)" d="M58,0h627" style="stroke: rgb(255, 255, 255); stroke-opacity: 1; stroke-width: 1px;"/><path class="ygrid crisp" transform="translate(0,216.08)" d="M58,0h627" style="stroke: rgb(255, 255, 255); stroke-opacity: 1; stroke-width: 1px;"/><path class="ygrid crisp" transform="translate(0,149.17)" d="M58,0h627" style="stroke: rgb(255, 255, 255); stroke-opacity: 1; stroke-width: 1px;"/><path class="ygrid crisp" transform="translate(0,82.27)" d="M58,0h627" style="stroke: rgb(255, 255, 255); stroke-opacity: 1; stroke-width: 1px;"/><path class="ygrid crisp" transform="translate(0,15.36)" d="M58,0h627" style="stroke: rgb(255, 255, 255); stroke-opacity: 1; stroke-width: 1px;"/></g></g><g class="zerolinelayer"><path class="xzl zl crisp" transform="translate(125.18,0)" d="M0,14v424" style="stroke: rgb(255, 255, 255); stroke-opacity: 1; stroke-width: 2px;"/><path class="yzl zl crisp" transform="translate(0,416.8)" d="M58,0h627" style="stroke: rgb(255, 255, 255); stroke-opacity: 1; stroke-width: 2px;"/></g><path class="xlines-below"/><path class="ylines-below"/><g class="overlines-below"/><g class="xaxislayer-below"/><g class="yaxislayer-below"/><g class="overaxes-below"/><g class="plot" transform="translate(58,14)" clip-path="url(#clipa698d3xyplot)"><g class="scatterlayer mlayer"><g class="trace scatter traced44260" style="stroke-miterlimit: 2; opacity: 1;"><g class="fills"/><g class="errorbars"/><g class="lines"><path class="js-line" d="M0,21.2L0.31,376.81L0.95,374.05L1.29,373.31L1.99,371.91L2.37,374.15L2.68,392.53L2.75,369L3.15,382.36L3.56,394.17L3.99,400.03L4.41,395.9L5.26,402.8L5.26,402.8L5.33,398.45L6.31,393.34L6.82,393L8.46,392.59L9.04,394.94L10.27,395.19L10.91,394.93L12.97,392.28L13.7,392.04L15.23,394.63L16.04,394.24L17.73,391.4L18.61,391.19L20.47,393.56L21.45,392.49L23.5,389.83L24.58,391.66L25.69,392.23L26.84,390.55L28.02,389.22L29.24,390.41L30.51,391.02L31.81,389.15L33.16,389.13L34.55,390.18L37.47,387.78L39.01,389.18L40.59,387.84L42.22,387.8L49.32,386.55L51.24,386.29L57.39,385.83L59.57,384.69L61.83,385.61L64.16,384L66.57,395.31L67.18,388.88L69.05,388.15L71.62,383.8L79.83,383.01L82.75,382.61L95.42,382.22L98.85,381.62L109.83,381.69L113.73,381.26L135.24,380.51L139.97,380.51L149.91,379.36L155.13,379.79L160.51,377.27L166.07,378.72L177.75,378.53L183.87,378.39L225.07,376.81L232.75,376.52L284.37,375.62L293.98,375.63L358.66,375.13L370.71,375.45L451.75,376.72L466.84,377.06L568.38,379L587.29,379.43L627,380.28" style="vector-effect: non-scaling-stroke; fill: none; stroke: rgb(31, 119, 180); stroke-opacity: 1; stroke-width: 2px; opacity: 1;"/></g><g class="points"/><g class="text"/></g><g class="trace scatter trace676d8e" style="stroke-miterlimit: 2; opacity: 1;"><g class="fills"/><g class="errorbars"/><g class="lines"><path class="js-line" d="M0,62.3L0.31,390.41L0.95,387.65L1.29,387.61L1.99,387.91L2.37,388.66L2.68,395.88L2.75,393.79L3.15,386.82L3.56,386.12L3.98,391.29L3.99,397.3L4.41,389.77L4.63,397.09L4.86,394.76L5.26,402.8L5.33,390.17L5.81,386.32L7.35,387.57L7.9,386.14L9.04,393.52L9.65,393.54L11.57,393.55L12.26,393.56L16.04,393.01L16.87,392.97L20.47,391.41L21.45,391.89L24.58,391.35L25.69,390.66L29.24,390.05L30.51,390L34.55,388.53L35.99,388.9L42.22,387.64L43.91,386.22L45.66,386.74L47.46,386.33L49.32,385.47L51.24,385.52L61.83,382.86L64.16,382.01L66.57,391.8L67.18,390.12L71.62,381.19L74.27,381.37L79.83,380.9L82.75,379.96L106.05,379.36L109.83,379.39L117.76,378.79L121.92,379.05L144.86,378.47L149.91,377.98L155.13,378.4L160.51,377.7L166.07,375.44L171.82,377.92L183.87,377.33L190.2,377.02L217.64,375.85L225.07,375.86L257.31,375.26L266.04,375.14L335.7,374.53L347,374.56L396,375.26L409.27,375.57L568.38,378.97L587.29,379.41L627,380.32" style="vector-effect: non-scaling-stroke; fill: none; stroke: rgb(255, 127, 14); stroke-opacity: 1; stroke-width: 2px; opacity: 1;"/></g><g class="points"/><g class="text"/></g></g></g><g class="overplot"/><path class="xlines-above crisp" d="M0,0" style="fill: none;"/><path class="ylines-above crisp" d="M0,0" style="fill: none;"/><g class="overlines-above"/><g class="xaxislayer-above"><g class="xtick"><text text-anchor="middle" x="0" y="459" transform="translate(125.18,0)" style="font-family: 'Times New Roman'; font-size: 20px; fill: rgb(0, 0, 0); fill-opacity: 1; white-space: pre; opacity: 1;">0</text></g><g class="xtick"><text text-anchor="middle" x="0" y="459" style="font-family: 'Times New Roman'; font-size: 20px; fill: rgb(0, 0, 0); fill-opacity: 1; white-space: pre; opacity: 1;" transform="translate(200.01,0)">2</text></g><g class="xtick"><text text-anchor="middle" x="0" y="459" style="font-family: 'Times New Roman'; font-size: 20px; fill: rgb(0, 0, 0); fill-opacity: 1; white-space: pre; opacity: 1;" transform="translate(274.85,0)">4</text></g><g class="xtick"><text text-anchor="middle" x="0" y="459" style="font-family: 'Times New Roman'; font-size: 20px; fill: rgb(0, 0, 0); fill-opacity: 1; white-space: pre; opacity: 1;" transform="translate(349.68,0)">6</text></g><g class="xtick"><text text-anchor="middle" x="0" y="459" style="font-family: 'Times New Roman'; font-size: 20px; fill: rgb(0, 0, 0); fill-opacity: 1; white-space: pre; opacity: 1;" transform="translate(424.51,0)">8</text></g><g class="xtick"><text text-anchor="middle" x="0" y="459" style="font-family: 'Times New Roman'; font-size: 20px; fill: rgb(0, 0, 0); fill-opacity: 1; white-space: pre; opacity: 1;" transform="translate(499.34,0)">10</text></g><g class="xtick"><text text-anchor="middle" x="0" y="459" style="font-family: 'Times New Roman'; font-size: 20px; fill: rgb(0, 0, 0); fill-opacity: 1; white-space: pre; opacity: 1;" transform="translate(574.17,0)">12</text></g><g class="xtick"><text text-anchor="middle" x="0" y="459" style="font-family: 'Times New Roman'; font-size: 20px; fill: rgb(0, 0, 0); fill-opacity: 1; white-space: pre; opacity: 1;" transform="translate(649,0)">14</text></g></g><g class="yaxislayer-above"><g class="ytick"><text text-anchor="end" x="57" y="7" transform="translate(0,416.8)" style="font-family: 'Times New Roman'; font-size: 20px; fill: rgb(0, 0, 0); fill-opacity: 1; white-space: pre; opacity: 1;">0</text></g><g class="ytick"><text text-anchor="end" x="57" y="7" style="font-family: 'Times New Roman'; font-size: 20px; fill: rgb(0, 0, 0); fill-opacity: 1; white-space: pre; opacity: 1;" transform="translate(0,349.89)">2</text></g><g class="ytick"><text text-anchor="end" x="57" y="7" style="font-family: 'Times New Roman'; font-size: 20px; fill: rgb(0, 0, 0); fill-opacity: 1; white-space: pre; opacity: 1;" transform="translate(0,282.99)">4</text></g><g class="ytick"><text text-anchor="end" x="57" y="7" style="font-family: 'Times New Roman'; font-size: 20px; fill: rgb(0, 0, 0); fill-opacity: 1; white-space: pre; opacity: 1;" transform="translate(0,216.08)">6</text></g><g class="ytick"><text text-anchor="end" x="57" y="7" style="font-family: 'Times New Roman'; font-size: 20px; fill: rgb(0, 0, 0); fill-opacity: 1; white-space: pre; opacity: 1;" transform="translate(0,149.17)">8</text></g><g class="ytick"><text text-anchor="end" x="57" y="7" style="font-family: 'Times New Roman'; font-size: 20px; fill: rgb(0, 0, 0); fill-opacity: 1; white-space: pre; opacity: 1;" transform="translate(0,82.27)">10</text></g><g class="ytick"><text text-anchor="end" x="57" y="7" style="font-family: 'Times New Roman'; font-size: 20px; fill: rgb(0, 0, 0); fill-opacity: 1; white-space: pre; opacity: 1;" transform="translate(0,15.36)">12</text></g></g><g class="overaxes-above"/></g></g><g class="polarlayer"/><g class="smithlayer"/><g class="ternarylayer"/><g class="geolayer"/><g class="funnelarealayer"/><g class="pielayer"/><g class="iciclelayer"/><g class="treemaplayer"/><g class="sunburstlayer"/><g class="glimages"/><defs id="topdefs-a698d3"><g class="clips"/><clipPath id="legenda698d3"><rect width="117" height="68" x="0" y="0"/></clipPath></defs><g class="layer-above"><g class="imagelayer"/><g class="shapelayer"/></g><g class="infolayer"><g class="legend" pointer-events="all" transform="translate(561.73,18.240000000000002)"><rect class="bg" shape-rendering="crispEdges" width="117" height="68" x="0" y="0" style="stroke: rgb(68, 68, 68); stroke-opacity: 1; fill: rgb(255, 255, 255); fill-opacity: 1; stroke-width: 0px;"/><g class="scrollbox" transform="" clip-path="url(#legenda698d3)"><g class="groups" transform=""><g class="traces" transform="translate(0,19.5)" style="opacity: 1;"><text class="legendtext" text-anchor="start" x="40" y="7.8" style="font-family: 'Times New Roman'; font-size: 20px; fill: rgb(0, 0, 0); fill-opacity: 1; white-space: pre;">Initial</text><g class="layers" style="opacity: 1;"><g class="legendfill"/><g class="legendlines"><path class="js-line" d="M5,0h30" style="fill: none; stroke: rgb(31, 119, 180); stroke-opacity: 1; stroke-width: 2px;"/></g><g class="legendsymbols"><g class="legendpoints"/></g></g><rect class="legendtoggle" x="0" y="-14.5" width="111.90625" height="29" style="fill: rgb(0, 0, 0); fill-opacity: 0;"/></g></g><g class="groups" transform=""><g class="traces" transform="translate(0,48.5)" style="opacity: 1;"><text class="legendtext" text-anchor="start" x="40" y="7.8" style="font-family: 'Times New Roman'; font-size: 20px; fill: rgb(0, 0, 0); fill-opacity: 1; white-space: pre;">Terminal</text><g class="layers" style="opacity: 1;"><g class="legendfill"/><g class="legendlines"><path class="js-line" d="M5,0h30" style="fill: none; stroke: rgb(255, 127, 14); stroke-opacity: 1; stroke-width: 2px;"/></g><g class="legendsymbols"><g class="legendpoints"/></g></g><rect class="legendtoggle" x="0" y="-14.5" width="111.90625" height="29" style="fill: rgb(0, 0, 0); fill-opacity: 0;"/></g></g></g><rect class="scrollbar" rx="20" ry="3" width="0" height="0" x="0" y="0" style="fill: rgb(128, 139, 164); fill-opacity: 1;"/></g><g class="g-gtitle"/><g class="g-xtitle" transform="translate(0,-0.48750000000001137)"><text class="xtitle" x="371.5" y="495.3" text-anchor="middle" style="font-family: 'Times New Roman'; font-size: 24px; fill: rgb(0, 0, 0); opacity: 1; font-weight: normal; white-space: pre;">Bond/IOU Holdings</text></g><g class="g-ytitle" transform="translate(16.2998046875,0)"><text class="ytitle" transform="rotate(-90,5.200000000000003,226)" x="5.200000000000003" y="226" text-anchor="middle" style="font-family: 'Times New Roman'; font-size: 24px; fill: rgb(0, 0, 0); opacity: 1; font-weight: normal; white-space: pre;">Percent</text></g></g></svg>